<svg id="Grupo_19233" data-name="Grupo 19233" xmlns="http://www.w3.org/2000/svg" width="26.826" height="26.826" viewBox="0 0 26.826 26.826">
  <path id="Caminho_8564" data-name="Caminho 8564" d="M8.816,1.5H21.01a7.324,7.324,0,0,1,7.316,7.316V21.01a7.324,7.324,0,0,1-7.316,7.316H8.816A7.324,7.324,0,0,1,1.5,21.01V8.816A7.324,7.324,0,0,1,8.816,1.5ZM21.01,25.887a4.883,4.883,0,0,0,4.877-4.877V8.816A4.883,4.883,0,0,0,21.01,3.939H8.816A4.883,4.883,0,0,0,3.939,8.816V21.01a4.883,4.883,0,0,0,4.877,4.877Z" transform="translate(-1.5 -1.5)" fill="#3aaa35"/>
  <path id="Caminho_8565" data-name="Caminho 8565" d="M16.659,10.435a6.129,6.129,0,0,1,.9.066A6.1,6.1,0,0,1,19.4,21.978a6.124,6.124,0,0,1-2.74.651,6.1,6.1,0,0,1,0-12.194Zm0,9.755a3.658,3.658,0,1,0-2.588-1.072A3.636,3.636,0,0,0,16.663,20.19Z" transform="translate(-3.195 -3.172)" fill="#3aaa35"/>
  <circle id="Elipse_1" data-name="Elipse 1" cx="1.626" cy="1.626" r="1.626" transform="translate(18.681 4.707)" fill="#3aaa35"/>
</svg>
