<svg xmlns="http://www.w3.org/2000/svg" width="26.296" height="26.296" viewBox="0 0 26.296 26.296">
  <path id="Icon_simple-spotify" data-name="Icon simple-spotify" d="M13.148,0A13.148,13.148,0,1,0,26.3,13.148,13.187,13.187,0,0,0,13.148,0ZM19.2,19a.783.783,0,0,1-1.119.263c-3.09-1.906-6.969-2.3-11.571-1.25a.813.813,0,1,1-.393-1.577c5-1.119,9.335-.657,12.754,1.446A.789.789,0,0,1,19.2,19Zm1.578-3.616a.993.993,0,0,1-1.383.329A17.038,17.038,0,0,0,6.311,14.2a1,1,0,0,1-.592-1.908,19.241,19.241,0,0,1,14.792,1.776.929.929,0,0,1,.264,1.315Zm.131-3.681C16.7,9.2,9.664,8.941,5.654,10.191a1.207,1.207,0,0,1-.723-2.3C9.6,6.507,17.29,6.77,22.156,9.664a1.271,1.271,0,0,1,.459,1.709,1.376,1.376,0,0,1-1.708.329Z" fill="#3aaa35"/>
</svg>
