<svg xmlns="http://www.w3.org/2000/svg" xmlns:xlink="http://www.w3.org/1999/xlink" width="75" height="74" viewBox="0 0 75 74">
  <defs>
    <clipPath id="clip-path">
      <rect id="Ret창ngulo_679" data-name="Ret창ngulo 679" width="59.405" height="59.975" transform="translate(0 0)" fill="none"/>
    </clipPath>
  </defs>
  <g id="Grupo_19243" data-name="Grupo 19243" transform="translate(-1110 -2522)">
    <g id="Grupo_2273" data-name="Grupo 2273" transform="translate(1110 2535.652)">
      <g id="Grupo_2272" data-name="Grupo 2272" clip-path="url(#clip-path)">
        <path id="Caminho_2387" data-name="Caminho 2387" d="M42.091,4.994,35.436,1.153,34.63.886A12.934,12.934,0,0,0,29.19.62c-5.059.78-10.035,4.091-13.711,7.527C7.678,15.451,1.459,27.1.564,37.817a22.771,22.771,0,0,0,1.571,11.23A12.677,12.677,0,0,0,4.7,52.726l.633.566,6.659,3.841a13.563,13.563,0,0,1-1.235-1.189,13.941,13.941,0,0,1-2.69-4.909c-1.595-4.989-1-11.044.336-16.029,2.662-9.932,9.4-20.509,17.9-26.407A22.86,22.86,0,0,1,36.815,4.34a12.744,12.744,0,0,1,4.469.387Z" fill="#9466f2"/>
        <path id="Caminho_2388" data-name="Caminho 2388" d="M11.962,57.582a.407.407,0,0,1-.2-.055L5.11,53.686,4.4,53.064a13.106,13.106,0,0,1-2.679-3.825C-.078,45.371-.146,40.875.108,37.783.984,27.325,6.894,15.563,15.17,7.815,17.8,5.361,23.1,1.1,29.122.171A13.462,13.462,0,0,1,34.758.45l.822.27L42.319,4.6a.453.453,0,0,1,.19.579.464.464,0,0,1-.56.247l-.806-.266a12.161,12.161,0,0,0-4.285-.367c-4.054.358-7.833,2.47-10.292,4.176-8,5.551-14.952,15.82-17.722,26.157C7.925,38.546,6.662,45.147,8.5,50.9a13.557,13.557,0,0,0,2.6,4.748,13.008,13.008,0,0,0,1.145,1.1.483.483,0,0,1,.091.625.456.456,0,0,1-.371.21M31.356.9a13.919,13.919,0,0,0-2.1.162c-5.782.892-10.92,5.026-13.468,7.413C7.67,16.08,1.868,27.611,1.015,37.855c-.25,2.983-.185,7.312,1.532,11A12.118,12.118,0,0,0,5.019,52.4l.621.555,4,2.3a15.174,15.174,0,0,1-2.007-4.083c-1.906-5.972-.61-12.767.333-16.283,2.821-10.535,9.916-21,18.081-26.667C28.6,6.453,32.527,4.268,36.773,3.888a13.809,13.809,0,0,1,2.516.013L35.213,1.546l-.726-.232A11.568,11.568,0,0,0,31.356.9" fill="#211a5c"/>
        <path id="Caminho_2389" data-name="Caminho 2389" d="M28.492,56.59c11.809-6.817,21.381-23.4,21.381-37.031S40.3.393,28.492,7.209,7.106,30.606,7.106,44.248,16.687,63.406,28.492,56.59" fill="#c2a6fc"/>
        <path id="Caminho_2390" data-name="Caminho 2390" d="M18.938,59.975a11.478,11.478,0,0,1-5.8-1.493c-4.18-2.418-6.489-7.47-6.489-14.234,0-13.756,9.7-30.554,21.617-37.432,5.857-3.382,11.388-3.914,15.569-1.5s6.489,7.474,6.489,14.241c0,13.757-9.693,30.546-21.606,37.425a19.925,19.925,0,0,1-9.782,2.991m19.1-55.24A19,19,0,0,0,28.72,7.6C17.051,14.335,7.562,30.777,7.562,44.248c0,6.424,2.142,11.2,6.033,13.445s9.107,1.715,14.673-1.5c11.662-6.736,21.15-23.169,21.15-36.637,0-6.427-2.142-11.206-6.036-13.457a10.575,10.575,0,0,0-5.343-1.367M28.492,56.59h0Z" fill="#211a5c"/>
        <path id="Caminho_2391" data-name="Caminho 2391" d="M28.492,51.22C37.942,45.766,45.6,32.5,45.6,21.586S37.942,6.244,28.492,11.7,11.376,30.43,11.376,41.346s7.667,15.332,17.116,9.874" fill="#fff"/>
        <path id="Caminho_2392" data-name="Caminho 2392" d="M20.846,54.019a9.226,9.226,0,0,1-4.683-1.208c-3.377-1.95-5.238-6.022-5.238-11.466,0-11.04,7.778-24.516,17.343-30.035,4.711-2.722,9.173-3.15,12.55-1.2s5.239,6.026,5.239,11.477c0,11.04-7.779,24.509-17.337,30.028a16.012,16.012,0,0,1-7.874,2.405M36.132,9.811a15.14,15.14,0,0,0-7.412,2.282c-9.31,5.377-16.888,18.5-16.888,29.252,0,5.108,1.7,8.9,4.783,10.681s7.222,1.356,11.653-1.2c9.309-5.373,16.882-18.49,16.882-29.24,0-5.111-1.7-8.907-4.786-10.69a8.334,8.334,0,0,0-4.232-1.085" fill="#211a5c"/>
        <path id="Caminho_2393" data-name="Caminho 2393" d="M28.489,46.294c7.095-4.1,12.842-14.055,12.842-22.248s-5.747-11.5-12.842-7.41S15.645,30.687,15.645,38.878s5.749,11.508,12.844,7.416" fill="#c2a6fc"/>
        <path id="Caminho_2394" data-name="Caminho 2394" d="M22.752,48.506a7.07,7.07,0,0,1-3.572-.918c-2.569-1.487-3.986-4.579-3.986-8.71,0-8.322,5.862-18.475,13.071-22.636,3.574-2.066,6.958-2.385,9.534-.9s3.988,4.574,3.988,8.7c0,8.324-5.864,18.48-13.071,22.638a12.1,12.1,0,0,1-5.964,1.822M34.224,15.331a11.2,11.2,0,0,0-5.508,1.7C21.76,21.044,16.1,30.846,16.1,38.878c0,3.792,1.256,6.606,3.536,7.921s5.343,1,8.629-.9c6.951-4.019,12.611-13.82,12.611-21.854,0-3.79-1.255-6.6-3.532-7.92a6.156,6.156,0,0,0-3.12-.795M28.489,46.294h0Z" fill="#211a5c"/>
        <path id="Caminho_2395" data-name="Caminho 2395" d="M28.489,22c4.736-2.734,8.573-.518,8.573,4.952S33.225,39.068,28.489,41.8s-8.574.518-8.574-4.953S23.752,24.735,28.489,22" fill="#fff"/>
        <path id="Caminho_2396" data-name="Caminho 2396" d="M24.655,43.429A4.844,4.844,0,0,1,22.2,42.8c-1.764-1.019-2.741-3.131-2.741-5.946,0-5.6,3.949-12.442,8.8-15.24v0c2.435-1.405,4.752-1.617,6.516-.6s2.736,3.129,2.736,5.944c0,5.6-3.944,12.441-8.8,15.241a8.211,8.211,0,0,1-4.057,1.234M28.712,22.4c-4.6,2.655-8.346,9.146-8.346,14.456,0,2.475.815,4.309,2.285,5.157s3.467.641,5.61-.6c4.6-2.656,8.345-9.146,8.345-14.457,0-2.478-.81-4.308-2.282-5.161s-3.465-.637-5.612.6" fill="#211a5c"/>
        <path id="Caminho_2397" data-name="Caminho 2397" d="M28.489,36.427c-2.375,1.372-4.3.26-4.3-2.481a9.5,9.5,0,0,1,4.3-7.448c2.373-1.37,4.3-.262,4.3,2.484a9.5,9.5,0,0,1-4.3,7.445" fill="#c2a6fc"/>
        <path id="Caminho_2398" data-name="Caminho 2398" d="M26.57,37.473a2.656,2.656,0,0,1-1.348-.351,3.45,3.45,0,0,1-1.486-3.176A10.013,10.013,0,0,1,28.265,26.1a3.446,3.446,0,0,1,3.492-.3,3.448,3.448,0,0,1,1.487,3.178,10.019,10.019,0,0,1-4.528,7.839,4.345,4.345,0,0,1-2.146.652m3.841-11.109a3.465,3.465,0,0,0-1.695.528,9,9,0,0,0-4.073,7.054,2.594,2.594,0,0,0,1.031,2.388,2.6,2.6,0,0,0,2.591-.3v0a9.023,9.023,0,0,0,4.071-7.055,2.605,2.605,0,0,0-1.034-2.4,1.773,1.773,0,0,0-.891-.223M28.489,36.427h0Z" fill="#211a5c"/>
        <path id="Caminho_2399" data-name="Caminho 2399" d="M44.709,40.059l3.637-1.57c.162-.07.281.034.412.111l9.783,5.625a.774.774,0,0,1,.393.822c-.065.317-1.185.823-1.582,1.035L56.2,46.7Z" fill="#c2a6fc"/>
        <path id="Caminho_2400" data-name="Caminho 2400" d="M56.2,47.156a.452.452,0,0,1-.228-.062L44.481,40.451a.462.462,0,0,1-.228-.417.454.454,0,0,1,.273-.39l3.641-1.571a.763.763,0,0,1,.765.1l9.835,5.654a1.226,1.226,0,0,1,.61,1.316c-.088.4-.555.7-1.57,1.214l-1.39.74a.471.471,0,0,1-.216.055M45.715,40.118l10.493,6.065L57.4,45.55a5.8,5.8,0,0,0,1.128-.672.435.435,0,0,0-.212-.258l-9.779-5.625s-.049-.031-.092-.054Z" fill="#211a5c"/>
        <path id="Caminho_2401" data-name="Caminho 2401" d="M44.447,40.628l.459,3.818c.019.177.171.224.3.3l9.759,5.667a.767.767,0,0,0,.91-.07c.236-.212.116-1.32.1-1.763l-.034-1.309Z" fill="#c2a6fc"/>
        <path id="Caminho_2402" data-name="Caminho 2402" d="M55.386,50.985a1.279,1.279,0,0,1-.648-.179L44.98,45.141a.828.828,0,0,1-.526-.641l-.459-3.818a.453.453,0,0,1,.679-.445l11.5,6.64a.452.452,0,0,1,.223.382l.055,1.6c.054.91.062,1.528-.266,1.825a1.172,1.172,0,0,1-.8.306M45.346,44.3a.93.93,0,0,0,.089.05l9.759,5.667a.325.325,0,0,0,.377-.008,10.053,10.053,0,0,0-.031-1.1l-.045-1.375-10.489-6.06Z" fill="#211a5c"/>
        <path id="Caminho_2403" data-name="Caminho 2403" d="M56.287,47.99,28.3,31.834a.6.6,0,0,1-.22-.818l.2-.343a.6.6,0,0,1,.822-.221L57.077,46.618a.6.6,0,0,1,.218.82l-.191.332a.6.6,0,0,1-.817.22" fill="#9466f2"/>
        <path id="Caminho_2404" data-name="Caminho 2404" d="M56.571,48.522a1.047,1.047,0,0,1-.522-.139L28.075,32.229a1.062,1.062,0,0,1-.387-1.442l.2-.342a1.06,1.06,0,0,1,1.437-.387L57.3,46.225a1.037,1.037,0,0,1,.485.641,1.024,1.024,0,0,1-.1.8L57.489,48a1.034,1.034,0,0,1-.64.491,1.151,1.151,0,0,1-.278.035M28.8,30.827a.157.157,0,0,0-.127.068l-.2.345a.148.148,0,0,0,.055.2L56.5,47.6a.147.147,0,0,0,.2-.055l.193-.328a.165.165,0,0,0-.054-.2L28.87,30.846a.108.108,0,0,0-.07-.019" fill="#211a5c"/>
      </g>
    </g>
    <rect id="Ret창ngulo_6932" data-name="Ret창ngulo 6932" width="75" height="74" transform="translate(1110 2522)" fill="none"/>
  </g>
</svg>
