<svg xmlns="http://www.w3.org/2000/svg" width="75" height="74" viewBox="0 0 75 74">
  <g id="Grupo_19241" data-name="Grupo 19241" transform="translate(-602 -2522)">
    <g id="Grupo_19215" data-name="Grupo 19215" transform="translate(602 2532.762)">
      <g id="Grupo_19216" data-name="Grupo 19216">
        <path id="Caminho_8466" data-name="Caminho 8466" d="M27.44,3.527,24.105,1.6l-.113-.03-.114-.027-.1-.015-.129-.008h-.109l-.126.008-.128.019-.125.03-.126.038-.137.046-.129.057-.136.064-.14.076L4.226,12.417a5.627,5.627,0,0,0-2.075,2.43,5.809,5.809,0,0,0-.618,2.5l.015,42.059a2.319,2.319,0,0,0,.7,1.861l3.336,1.927a2.323,2.323,0,0,1-.7-1.862L4.87,19.274a5.947,5.947,0,0,1,.614-2.5,5.627,5.627,0,0,1,2.074-2.43L25.827,3.786l.14-.077.14-.068.126-.054.137-.045.125-.037.129-.031.125-.019.126-.011h.113l.126.007.113.015.1.027Z" transform="translate(-1.082 -1.073)" fill="#c2a6fc" fill-rule="evenodd"/>
        <path id="Caminho_8467" data-name="Caminho 8467" d="M22.546.891l-.8.22-.114.064L3.371,11.73a5.123,5.123,0,0,0-1.911,2.242,5.6,5.6,0,0,0-.569,2.31L.906,58.333a1.9,1.9,0,0,0,.553,1.528L3.42,60.987a3.707,3.707,0,0,1-.06-.72L3.333,18.2A6.37,6.37,0,0,1,4,15.511a5.962,5.962,0,0,1,2.242-2.624L24.912,2.135ZM4.5,62.569a.509.509,0,0,1-.227-.061L.944,60.582a2.774,2.774,0,0,1-.919-2.238L0,16.274a6.383,6.383,0,0,1,.667-2.685A5.982,5.982,0,0,1,2.9,10.96L22.269.015l.3-.015.444.061c.011,0,.125.038.137.042l3.424,1.964a.442.442,0,0,1,.186.565.438.438,0,0,1-.538.247l-.341-.061-.8.219-.114.065L6.7,13.653a5.039,5.039,0,0,0-1.9,2.241,5.366,5.366,0,0,0-.577,2.314l.011,42.051a1.87,1.87,0,0,0,.554,1.524.46.46,0,0,1,.076.6.45.45,0,0,1-.365.186" fill="#211a5c" fill-rule="evenodd"/>
        <path id="Caminho_8468" data-name="Caminho 8468" d="M15.579,67.767,33.848,57.209a6.236,6.236,0,0,0,2.693-4.933l-.015-42.056c0-1.861-1.206-2.677-2.693-1.82L15.563,18.958a6.231,6.231,0,0,0-2.688,4.929l.011,42.059c0,1.858,1.206,2.678,2.693,1.82" transform="translate(-9.087 -5.688)" fill="#c2a6fc" fill-rule="evenodd"/>
        <path id="Caminho_8469" data-name="Caminho 8469" d="M33.863,7.434a1.9,1.9,0,0,0-.907.277L14.7,18.269a5.814,5.814,0,0,0-2.477,4.547l.011,42.059a1.758,1.758,0,0,0,.656,1.592,1.368,1.368,0,0,0,1.369-.159L32.528,55.751a5.812,5.812,0,0,0,2.48-4.547L34.982,9.148a1.757,1.757,0,0,0-.641-1.592.966.966,0,0,0-.478-.122M14.487,66.7h0Zm-1.119.785a1.838,1.838,0,0,1-.922-.239,2.586,2.586,0,0,1-1.092-2.366l-.027-42.059A6.716,6.716,0,0,1,14.248,17.5L32.516,6.941a2.218,2.218,0,0,1,2.264-.16,2.579,2.579,0,0,1,1.093,2.366L35.887,51.2a6.683,6.683,0,0,1-2.905,5.32L14.71,67.079a2.683,2.683,0,0,1-1.342.4" transform="translate(-7.994 -4.616)" fill="#211a5c" fill-rule="evenodd"/>
        <path id="Caminho_8470" data-name="Caminho 8470" d="M36.54,51.771l-.015-41.551c0-1.861-1.206-2.677-2.693-1.82L15.563,18.958a6.231,6.231,0,0,0-2.688,4.93l.011,41.547Z" transform="translate(-9.087 -5.688)" fill="#fff" fill-rule="evenodd"/>
        <path id="Caminho_8471" data-name="Caminho 8471" d="M33.863,7.432a1.9,1.9,0,0,0-.907.276L14.7,18.267a5.813,5.813,0,0,0-2.477,4.547l.011,40.774L35.008,50.443l-.026-41.3a1.758,1.758,0,0,0-.641-1.592.969.969,0,0,0-.478-.121M11.795,64.808a.506.506,0,0,1-.228-.06.437.437,0,0,1-.212-.387l-.026-41.547A6.717,6.717,0,0,1,14.249,17.5L32.517,6.939a2.2,2.2,0,0,1,2.264-.157,2.57,2.57,0,0,1,1.093,2.363L35.888,50.7a.436.436,0,0,1-.216.388L12.022,64.748a.51.51,0,0,1-.227.06" transform="translate(-7.995 -4.614)" fill="#211a5c" fill-rule="evenodd"/>
        <path id="Caminho_8472" data-name="Caminho 8472" d="M2.162,46.671l-.012.042a5.809,5.809,0,0,0-.618,2.5l.015,42.059a2.315,2.315,0,0,0,.7,1.861L5.586,95.06a2.324,2.324,0,0,1-.7-1.862L4.87,51.139a5.741,5.741,0,0,1,.614-2.5L5.5,48.6Z" transform="translate(-1.082 -32.939)" fill="#9466f2" fill-rule="evenodd"/>
        <path id="Caminho_8473" data-name="Caminho 8473" d="M1.3,46.263A5.319,5.319,0,0,0,.89,48.182L.906,90.229a1.9,1.9,0,0,0,.553,1.528L3.42,92.883a3.707,3.707,0,0,1-.06-.72L3.333,50.1a6.432,6.432,0,0,1,.516-2.359ZM4.5,94.465a.509.509,0,0,1-.227-.061L.944,92.478A2.774,2.774,0,0,1,.026,90.24L0,48.17A6.378,6.378,0,0,1,.667,45.48a.466.466,0,0,1,.277-.257.455.455,0,0,1,.364.019l3.334,1.927a.445.445,0,0,1,.178.584,5.612,5.612,0,0,0-.592,2.356l.011,42.047a1.87,1.87,0,0,0,.554,1.524.46.46,0,0,1,.076.6.45.45,0,0,1-.365.186" transform="translate(0 -31.896)" fill="#211a5c" fill-rule="evenodd"/>
        <path id="Caminho_8474" data-name="Caminho 8474" d="M6.354,97.432a.448.448,0,0,1-.451-.443V92.76a.445.445,0,1,1,.89,0v4.229a.445.445,0,0,1-.439.443" transform="translate(-4.166 -65.15)" fill="#211a5c" fill-rule="evenodd"/>
        <path id="Caminho_8475" data-name="Caminho 8475" d="M6.354,73.626a.448.448,0,0,1-.451-.448V68.951a.445.445,0,0,1,.89,0v4.228a.446.446,0,0,1-.439.448" transform="translate(-4.166 -48.35)" fill="#211a5c" fill-rule="evenodd"/>
        <path id="Caminho_8476" data-name="Caminho 8476" d="M47.819,183.278a.432.432,0,0,1-.379-.224.444.444,0,0,1,.162-.61l3.664-2.113a.442.442,0,0,1,.6.163.448.448,0,0,1-.163.611l-3.664,2.112a.445.445,0,0,1-.224.061" transform="translate(-33.438 -127.229)" fill="#211a5c" fill-rule="evenodd"/>
        <path id="Caminho_8477" data-name="Caminho 8477" d="M80.221,17.3h0a1.119,1.119,0,0,0-.478.88c0,.333.216.478.478.326a1.113,1.113,0,0,0,.489-.88c0-.33-.224-.478-.489-.327" transform="translate(-56.279 -12.164)" fill="#bdedf8" fill-rule="evenodd"/>
        <path id="Caminho_8478" data-name="Caminho 8478" d="M79.165,16.227h0Zm-.2,1.711a.63.63,0,0,1-.337-.091.818.818,0,0,1-.38-.74,1.563,1.563,0,0,1,.706-1.266.751.751,0,0,1,.766-.027.823.823,0,0,1,.379.739,1.565,1.565,0,0,1-.706,1.267.83.83,0,0,1-.429.118" transform="translate(-55.224 -11.096)" fill="#211a5c" fill-rule="evenodd"/>
        <path id="Caminho_8479" data-name="Caminho 8479" d="M64.722,110.532a.466.466,0,0,1-.39-.22.44.44,0,0,1,.163-.611l3.6-2.063a.445.445,0,0,1,.44.774l-3.584,2.063a.454.454,0,0,1-.227.057" transform="translate(-45.358 -75.925)" fill="#1a87c7" fill-rule="evenodd"/>
        <path id="Caminho_8480" data-name="Caminho 8480" d="M64.722,134.666a.469.469,0,0,1-.39-.224.44.44,0,0,1,.163-.611l3.6-2.063a.445.445,0,0,1,.44.774L64.949,134.6a.463.463,0,0,1-.227.061" transform="translate(-45.358 -92.955)" fill="#1a87c7" fill-rule="evenodd"/>
        <path id="Caminho_8481" data-name="Caminho 8481" d="M22.18,54.567a.436.436,0,0,1-.391-.227.442.442,0,0,1,.163-.606l1.057-.607a.442.442,0,0,1,.6.163.447.447,0,0,1-.163.611l-1.058.606a.423.423,0,0,1-.212.061" transform="translate(-15.336 -37.452)" fill="#211a5c" fill-rule="evenodd"/>
        <path id="Caminho_8482" data-name="Caminho 8482" d="M29.349,50.447a.427.427,0,0,1-.38-.224.447.447,0,0,1,.163-.61l1.058-.607a.445.445,0,0,1,.44.774l-1.058.606a.461.461,0,0,1-.223.061" transform="translate(-20.402 -34.545)" fill="#211a5c" fill-rule="evenodd"/>
        <path id="Caminho_8483" data-name="Caminho 8483" d="M36.513,46.327a.465.465,0,0,1-.392-.224.455.455,0,0,1,.168-.611l1.054-.606a.462.462,0,0,1,.619.167.453.453,0,0,1-.163.607l-1.058.606a.464.464,0,0,1-.227.061" transform="translate(-25.454 -31.638)" fill="#211a5c" fill-rule="evenodd"/>
        <path id="Caminho_8484" data-name="Caminho 8484" d="M25.493,130.9a.443.443,0,0,1-.212-.834l1.8-1.028a.442.442,0,0,1,.6.167.436.436,0,0,1-.163.607l-1.8,1.028a.517.517,0,0,1-.227.06" transform="translate(-17.681 -91.028)" fill="#211a5c" fill-rule="evenodd"/>
        <path id="Caminho_8485" data-name="Caminho 8485" d="M25.493,155.026a.453.453,0,0,1-.391-.227.461.461,0,0,1,.179-.607l1.8-1.027a.445.445,0,0,1,.439.774l-1.8,1.031a.5.5,0,0,1-.227.057" transform="translate(-17.681 -108.055)" fill="#211a5c" fill-rule="evenodd"/>
        <path id="Caminho_8486" data-name="Caminho 8486" d="M25.492,82.64a.458.458,0,0,1-.391-.223.474.474,0,0,1,.162-.611l1.8-1.028a.455.455,0,0,1,.614.163.44.44,0,0,1-.163.611l-1.8,1.027a.465.465,0,0,1-.227.061" transform="translate(-17.679 -56.968)" fill="#211a5c" fill-rule="evenodd"/>
        <path id="Caminho_8487" data-name="Caminho 8487" d="M25.493,106.768a.458.458,0,0,1-.391-.224.465.465,0,0,1,.179-.611l1.8-1.028a.445.445,0,0,1,.439.774l-1.8,1.028a.461.461,0,0,1-.227.061" transform="translate(-17.681 -73.997)" fill="#211a5c" fill-rule="evenodd"/>
        <path id="Caminho_8488" data-name="Caminho 8488" d="M64.722,62.277a.459.459,0,0,1-.39-.224.44.44,0,0,1,.163-.611l3.6-2.063a.445.445,0,0,1,.44.774l-3.584,2.064a.464.464,0,0,1-.227.06" transform="translate(-45.358 -41.865)" fill="#1a87c7" fill-rule="evenodd"/>
        <path id="Caminho_8489" data-name="Caminho 8489" d="M64.722,86.4a.468.468,0,0,1-.39-.225.438.438,0,0,1,.163-.61l3.6-2.063a.44.44,0,0,1,.6.163.447.447,0,0,1-.163.611l-3.584,2.062a.463.463,0,0,1-.227.062" transform="translate(-45.358 -58.892)" fill="#1a87c7" fill-rule="evenodd"/>
        <path id="Caminho_8490" data-name="Caminho 8490" d="M52.252,54.277l-12.015,6.94v4.835l12.015-6.94Z" transform="translate(-28.398 -38.307)" fill="#fff" fill-rule="evenodd"/>
        <path id="Caminho_8491" data-name="Caminho 8491" d="M39.584,60.411v3.8L50.72,57.791v-3.8Zm-.439,5.022a.464.464,0,0,1-.227-.061.448.448,0,0,1-.228-.383V60.154a.454.454,0,0,1,.228-.383l12.026-6.944a.445.445,0,0,1,.667.387v4.835a.449.449,0,0,1-.224.383L39.372,65.372a.464.464,0,0,1-.227.061" transform="translate(-27.305 -37.243)" fill="#211a5c" fill-rule="evenodd"/>
        <path id="Caminho_8492" data-name="Caminho 8492" d="M52.252,78.4,40.238,85.348V90.18l12.015-6.944Z" transform="translate(-28.398 -55.334)" fill="#fff" fill-rule="evenodd"/>
        <path id="Caminho_8493" data-name="Caminho 8493" d="M39.584,84.542v3.8L50.72,81.921v-3.8Zm-.439,5.025a.517.517,0,0,1-.227-.06.461.461,0,0,1-.228-.387V84.288a.454.454,0,0,1,.228-.387l12.026-6.94a.445.445,0,0,1,.667.382v4.833a.446.446,0,0,1-.224.386L39.372,89.507a.517.517,0,0,1-.227.06" transform="translate(-27.305 -54.274)" fill="#211a5c" fill-rule="evenodd"/>
        <path id="Caminho_8494" data-name="Caminho 8494" d="M52.252,102.546l-12.015,6.94v4.832l12.015-6.94Z" transform="translate(-28.398 -72.373)" fill="#fff" fill-rule="evenodd"/>
        <path id="Caminho_8495" data-name="Caminho 8495" d="M39.584,108.673v3.8l11.135-6.425v-3.8Zm-.439,5.018a.465.465,0,0,1-.227-.061.444.444,0,0,1-.228-.384v-4.831a.452.452,0,0,1,.228-.386l12.026-6.94a.438.438,0,0,1,.443,0,.449.449,0,0,1,.224.386v4.832a.445.445,0,0,1-.224.383l-12.014,6.941a.465.465,0,0,1-.227.061" transform="translate(-27.305 -71.302)" fill="#211a5c" fill-rule="evenodd"/>
        <path id="Caminho_8496" data-name="Caminho 8496" d="M52.252,126.663l-12.015,6.944v4.832l12.015-6.94Z" transform="translate(-28.398 -89.394)" fill="#fff" fill-rule="evenodd"/>
        <path id="Caminho_8497" data-name="Caminho 8497" d="M39.584,132.8v3.808l11.135-6.429v-3.8Zm-.439,5.025a.518.518,0,0,1-.227-.061.453.453,0,0,1-.228-.387v-4.832a.453.453,0,0,1,.228-.387l12.026-6.941a.443.443,0,0,1,.443,0,.451.451,0,0,1,.224.384v4.835a.457.457,0,0,1-.224.387l-12.014,6.94a.518.518,0,0,1-.227.061" transform="translate(-27.305 -88.332)" fill="#211a5c" fill-rule="evenodd"/>
        <path id="Caminho_8498" data-name="Caminho 8498" d="M62.725,48.591l-1.836-1.062L60.9,29.705a3.891,3.891,0,0,1,1.747-3.049q10.61-6.1,21.189-12.216l.679-.394a1.294,1.294,0,0,1,1.183-.152l-3.637-2.1a1.281,1.281,0,0,0-1.18.152l-.694.395Q69.6,18.449,59.016,24.555A3.859,3.859,0,0,0,57.252,27.6V45.523a1.252,1.252,0,0,0,.455,1.1l1.233.713v.053a33.937,33.937,0,0,0-.253,5.757l3.636,2.1a32.092,32.092,0,0,1,.4-6.656" transform="translate(-40.406 -8.262)" fill="#c2a6fc" fill-rule="evenodd"/>
        <path id="Caminho_8499" data-name="Caminho 8499" d="M58.048,51.82,60.79,53.4a30.184,30.184,0,0,1,.365-5.647l-1.574-.906a.44.44,0,0,1-.213-.387V28.64a4.34,4.34,0,0,1,1.976-3.429L83.208,12.6c.027-.011.042-.022.064-.034l-2.518-1.453a.879.879,0,0,0-.739.159L58.158,23.877a3.374,3.374,0,0,0-1.532,2.67l-.015,17.912a.889.889,0,0,0,.277.744l1.194.682a.435.435,0,0,1,.217.459,33.373,33.373,0,0,0-.251,5.476m3.193,2.81a.464.464,0,0,1-.227-.061l-3.637-2.1a.438.438,0,0,1-.224-.379,38.406,38.406,0,0,1,.224-5.579l-.978-.561a1.777,1.777,0,0,1-.679-1.479l.011-17.931a4.3,4.3,0,0,1,1.976-3.424L79.574,10.493a1.736,1.736,0,0,1,1.57-.174l3.7,2.124a.447.447,0,0,1-.4.8.868.868,0,0,0-.8.133L61.8,25.978a3.423,3.423,0,0,0-1.536,2.669V46.207l1.612.937a.441.441,0,0,1,.212.47,32.663,32.663,0,0,0-.4,6.565.427.427,0,0,1-.212.39.462.462,0,0,1-.228.061" transform="translate(-39.325 -7.197)" fill="#211a5c" fill-rule="evenodd"/>
        <path id="Caminho_8500" data-name="Caminho 8500" d="M65.29,133.2h0l-1.245.209-3.159-1.821.618.357V132a33.875,33.875,0,0,0-.253,5.754l3.636,2.1a32.092,32.092,0,0,1,.4-6.656" transform="translate(-42.971 -92.867)" fill="#fff" fill-rule="evenodd"/>
        <path id="Caminho_8501" data-name="Caminho 8501" d="M60.624,136.423l2.742,1.585a31.454,31.454,0,0,1,.311-5.336l-.641.107a.448.448,0,0,1-.288-.054l-1.961-1.134a36.3,36.3,0,0,0-.163,4.832m3.193,2.81a.464.464,0,0,1-.227-.061l-3.637-2.1a.438.438,0,0,1-.224-.379,38.406,38.406,0,0,1,.224-5.579l-.364-.205a.449.449,0,1,1,.455-.773l3.007,1.74,1.108-.182a.437.437,0,0,1,.387.129.452.452,0,0,1,.114.4,32.676,32.676,0,0,0-.4,6.565.427.427,0,0,1-.212.39.462.462,0,0,1-.228.061" transform="translate(-41.902 -91.8)" fill="#211a5c" fill-rule="evenodd"/>
        <path id="Caminho_8502" data-name="Caminho 8502" d="M61.48,61.547l-3.637-2.1a3.619,3.619,0,0,0-.591,1.846V79.216a1.256,1.256,0,0,0,.455,1.1l1.233.713a34.532,34.532,0,0,0-.253,5.811l3.636,2.1a32.091,32.091,0,0,1,.4-6.656l-1.836-1.062L60.9,63.4a3.729,3.729,0,0,1,.579-1.851" transform="translate(-40.406 -41.955)" fill="#9466f2" fill-rule="evenodd"/>
        <path id="Caminho_8503" data-name="Caminho 8503" d="M58.048,85.509,60.79,87.1a29.93,29.93,0,0,1,.365-5.651l-1.574-.906a.44.44,0,0,1-.213-.387V62.33a4.014,4.014,0,0,1,.429-1.685l-2.871-1.653a2.984,2.984,0,0,0-.3,1.243l-.015,17.912a.889.889,0,0,0,.277.744l1.194.682a.43.43,0,0,1,.217.456,32.965,32.965,0,0,0-.251,5.48m3.193,2.81a.464.464,0,0,1-.227-.061l-3.637-2.1a.438.438,0,0,1-.224-.379,38.218,38.218,0,0,1,.224-5.579l-.978-.561a1.781,1.781,0,0,1-.679-1.479l.011-17.931a4.052,4.052,0,0,1,.656-2.082.437.437,0,0,1,.592-.152l3.644,2.1a.513.513,0,0,1,.217.284.459.459,0,0,1-.065.345,3.245,3.245,0,0,0-.516,1.616V79.9l1.612.937a.441.441,0,0,1,.212.47,32.647,32.647,0,0,0-.4,6.565.427.427,0,0,1-.212.39.462.462,0,0,1-.228.061" transform="translate(-39.325 -40.886)" fill="#211a5c" fill-rule="evenodd"/>
        <path id="Caminho_8504" data-name="Caminho 8504" d="M94.989,38.2c0-4.418.015-13.683.015-18.1,0-1.116-.793-1.574-1.764-1.017Q82.312,25.4,71.372,31.7a3.9,3.9,0,0,0-1.747,3.049l-.012,17.92c0,1.118.793,1.577,1.759,1.016l.076-.05a30.7,30.7,0,0,0-.4,6.656c.706-1.21,1.411-2.412,2.1-3.625,4.43-7.744,13.149-11.636,20.044-15.39a3.408,3.408,0,0,0,1.271-1.308,3.5,3.5,0,0,0,.527-1.764" transform="translate(-49.13 -13.303)" fill="#fff" fill-rule="evenodd"/>
        <path id="Caminho_8505" data-name="Caminho 8505" d="M70.366,52.158a.45.45,0,0,1,.254.069.432.432,0,0,1,.212.424,24.623,24.623,0,0,0-.414,4.946c.439-.74.869-1.479,1.282-2.223,3.974-6.932,11.26-10.8,17.692-14.21.854-.458,1.71-.9,2.53-1.35a2.939,2.939,0,0,0,1.092-1.145,3.037,3.037,0,0,0,.478-1.536v-18.1a.641.641,0,0,0-1.082-.63L70.545,31.015a3.456,3.456,0,0,0-1.536,2.662V51.6a.642.642,0,0,0,1.084.629.542.542,0,0,1,.274-.069m-.376,7.509a.389.389,0,0,1-.113-.015.434.434,0,0,1-.326-.428l-.012-.387a31.062,31.062,0,0,1,.289-5.572,1.382,1.382,0,0,1-.982-.144,1.688,1.688,0,0,1-.729-1.524V33.678A4.3,4.3,0,0,1,70.1,30.245L91.957,17.635a1.507,1.507,0,0,1,2.431,1.4v18.1a3.909,3.909,0,0,1-.6,1.991A3.949,3.949,0,0,1,92.347,40.6c-.83.448-1.673.9-2.541,1.354-6.314,3.353-13.486,7.153-17.324,13.862-.694,1.217-1.4,2.423-2.1,3.632a.479.479,0,0,1-.392.22" transform="translate(-48.074 -12.234)" fill="#211a5c" fill-rule="evenodd"/>
        <path id="Caminho_8506" data-name="Caminho 8506" d="M83.009,56.8a.419.419,0,0,1-.375-.225.439.439,0,0,1,.163-.61l14.768-8.515a.449.449,0,1,1,.455.774L83.237,56.746a.508.508,0,0,1-.227.057" transform="translate(-58.275 -33.449)" fill="#211a5c" fill-rule="evenodd"/>
        <path id="Caminho_8507" data-name="Caminho 8507" d="M83.009,69.107a.424.424,0,0,1-.375-.224.439.439,0,0,1,.163-.61L99.67,58.537a.432.432,0,0,1,.6.163.442.442,0,0,1-.163.606L83.237,69.047a.509.509,0,0,1-.227.06" transform="translate(-58.275 -41.27)" fill="#211a5c" fill-rule="evenodd"/>
        <path id="Caminho_8508" data-name="Caminho 8508" d="M82.991,93.6a.447.447,0,0,1-.227-.834L93.636,86.5a.447.447,0,1,1,.452.77L83.218,93.54a.464.464,0,0,1-.227.061" transform="translate(-58.257 -61.004)" fill="#211a5c" fill-rule="evenodd"/>
      </g>
    </g>
    <rect id="Retângulo_6930" data-name="Retângulo 6930" width="75" height="74" transform="translate(602 2522)" fill="none"/>
  </g>
</svg>
