<svg xmlns="http://www.w3.org/2000/svg" xmlns:xlink="http://www.w3.org/1999/xlink" width="75" height="74" viewBox="0 0 75 74">
  <defs>
    <clipPath id="clip-path">
      <rect id="Ret창ngulo_6919" data-name="Ret창ngulo 6919" width="62.84" height="64.294" fill="none"/>
    </clipPath>
  </defs>
  <g id="Grupo_19244" data-name="Grupo 19244" transform="translate(-1364 -2522)">
    <g id="Grupo_19220" data-name="Grupo 19220" transform="translate(1364 2531.332)">
      <g id="Grupo_19219" data-name="Grupo 19219" clip-path="url(#clip-path)">
        <path id="Caminho_8527" data-name="Caminho 8527" d="M23.547,260.463c.565-3.761.463-8.227,1.754-11.376a8.093,8.093,0,0,1,1.763-2.669,7.44,7.44,0,0,1,3.919-2.073,7.785,7.785,0,0,1,4.442.461,8.5,8.5,0,0,1,2.781,1.857,8.655,8.655,0,0,1,1.865,2.778,7.859,7.859,0,0,1,.458,4.452,7.5,7.5,0,0,1-2.077,3.915,7.993,7.993,0,0,1-2.67,1.764c-3.142,1.291-7.612,1.182-11.378,1.75a.725.725,0,0,1-.643-.216.717.717,0,0,1-.213-.643" transform="translate(-19.313 -200.375)" fill="#c2a6fc" fill-rule="evenodd"/>
        <path id="Caminho_8528" data-name="Caminho 8528" d="M21.061,257.952h0Zm8.879-15.719a6.749,6.749,0,0,0-1.342.137,6.915,6.915,0,0,0-3.637,1.919,7.5,7.5,0,0,0-1.643,2.487,26.965,26.965,0,0,0-1.31,7.414c-.111,1.274-.226,2.61-.411,3.854a.18.18,0,0,0,.06.168.166.166,0,0,0,.18.061c1.24-.184,2.568-.307,3.855-.413a26.8,26.8,0,0,0,7.4-1.305,7.777,7.777,0,0,0,2.494-1.643,6.993,6.993,0,0,0,1.925-3.638,7.229,7.229,0,0,0-.43-4.129,8.063,8.063,0,0,0-4.345-4.345,7.417,7.417,0,0,0-2.8-.568M21.8,259.363a1.214,1.214,0,0,1-.907-.383,1.246,1.246,0,0,1-.366-1.106c.181-1.2.292-2.516.4-3.776a27.543,27.543,0,0,1,1.388-7.721,8.457,8.457,0,0,1,1.879-2.856,8.039,8.039,0,0,1,4.2-2.225,8.293,8.293,0,0,1,4.752.492,9.175,9.175,0,0,1,4.941,4.941,8.354,8.354,0,0,1,.491,4.745,8.049,8.049,0,0,1-2.226,4.206,8.829,8.829,0,0,1-2.85,1.887,28.321,28.321,0,0,1-7.714,1.383c-1.273.107-2.587.215-3.789.4a1.011,1.011,0,0,1-.2.014" transform="translate(-16.827 -197.863)" fill="#211a5c" fill-rule="evenodd"/>
        <path id="Caminho_8529" data-name="Caminho 8529" d="M93.135,133.756l-5.381-10.208,1.975-1.98a3.679,3.679,0,0,1,1.522-.967,2.383,2.383,0,0,1,1.569.031l9.851,3.591h0Z" transform="translate(-72.003 -98.857)" fill="#c2a6fc" fill-rule="evenodd"/>
        <path id="Caminho_8530" data-name="Caminho 8530" d="M85.914,121.156l4.854,9.211,8.411-8.412-9.055-3.286a1.779,1.779,0,0,0-1.222-.031,3.033,3.033,0,0,0-1.3.829Zm4.715,10.653h-.078a.553.553,0,0,1-.4-.29L84.762,121.31a.537.537,0,0,1,.1-.629l1.98-1.981a4.1,4.1,0,0,1,1.754-1.1,2.907,2.907,0,0,1,1.906.045l9.851,3.577a.563.563,0,0,1,.342.369.554.554,0,0,1-.1.491l-9.573,9.578a.515.515,0,0,1-.389.153" transform="translate(-69.497 -96.374)" fill="#211a5c" fill-rule="evenodd"/>
        <path id="Caminho_8531" data-name="Caminho 8531" d="M163.413,208.321l10.212,5.389,1.98-1.979a3.706,3.706,0,0,0,.971-1.52,2.418,2.418,0,0,0-.046-1.565l-3.581-9.856h0Z" transform="translate(-134.082 -163.108)" fill="#c2a6fc" fill-rule="evenodd"/>
        <path id="Caminho_8532" data-name="Caminho 8532" d="M161.842,205.868l9.2,4.865,1.693-1.7a3.093,3.093,0,0,0,.838-1.288,1.869,1.869,0,0,0-.033-1.23l-3.294-9.055Zm9.305,6.079a.717.717,0,0,1-.255-.062L160.681,206.5a.553.553,0,0,1-.13-.874l9.532-9.533a.685.685,0,0,1,.514-.108.529.529,0,0,1,.389.307l3.581,9.856a2.946,2.946,0,0,1,.051,1.9,4.16,4.16,0,0,1-1.111,1.749l-1.975,1.981a.55.55,0,0,1-.384.169" transform="translate(-131.604 -160.792)" fill="#211a5c" fill-rule="evenodd"/>
        <path id="Caminho_8533" data-name="Caminho 8533" d="M102.016,145.045l12.225-11.636-.1.092-.1.076-.1.077-.106.076-.116.078-.111.061-.121.061-.12.062-.125.045-.125.047-.134.045-.134.047-.139.03-.139.031-.143.031-.148.03-.153.015-.152.016h-.158l-.157.014H111.5l-.166-.014h-.166l-.171-.016-.171-.015-.176-.03-.181-.031-.181-.031-.185-.03-.181-.047-.19-.045-.19-.062-.189-.047-.19-.076-.19-.061-.19-.061-.194-.078-.185-.076-.19-.093-.19-.076-.189-.092-.186-.092-.185-.109-.19-.092-.185-.106-.181-.109-.185-.123-.185-.107-.181-.122-.181-.123-.176-.123-.181-.123-.176-.138-.176-.123-.171-.139-.171-.137-.171-.154-.167-.14-.166-.151-.167-.139-.162-.153-.162-.154-.157-.154-.158-.168-.153-.154-.152-.168-.152-.17-.144-.153-.144-.168-.143-.17-.139-.183-.139-.17-.134-.168-.13-.185-.125-.17-.125-.185-.125-.182-.116-.185-.116-.169-.115-.185-.107-.184-.107-.2-.1-.185-.1-.184-.092-.184-.093-.185-.083-.2-.083-.184-.079-.185-.078-.2-.065-.185-.07-.184-.06-.2-.06-.183-.051-.184-.047-.2-.046-.185-.037-.184-.033-.168-.027-.184-.024-.185-.018-.168-.014-.17-.009-.168-.005-.17v-.153l.005-.169.009-.153.014-.154.018-.137.024-.154.032-.139.028-.153.037-.137.042-.123.046-.137.046-.122.055-.123.055-.123.065-.123.065-.107.07-.122.074-.109.074-.092.084-.106.088-.092L89.565,132.6c-4.618,5.142,7.311,17.069,12.451,12.45" transform="translate(-72.634 -98.695)" fill="#9466f2" fill-rule="evenodd"/>
        <path id="Caminho_8534" data-name="Caminho 8534" d="M99.528,142.554h0Zm-2.374-22.412-9.679,10.331c-2.138,2.378-.176,6.4,2.554,9.133s6.746,4.681,9.133,2.548l10.268-9.778-.421.014-2.7-.52-3.831-2.2L98.95,125.79l-1.619-3.745-.186-1.5ZM96.72,144.15c-2.517,0-5.353-1.673-7.463-3.775-3.077-3.085-5.2-7.721-2.587-10.638l11.554-12.311a.54.54,0,0,1,.8.721H99l.023.016-.139.137.009.016-.009-.016-.148.168.028.017h-.041l-.148.153.074.031h-.106l-.134.154.143.062-.309,1.657.6,2.7,2.443,3.806,3.951,3.147,3.633,1.1h.305l1.494-.305.116.09.111-.09-.046-.092.079.061.139-.139-.028-.03.042.016.143-.139h-.009a.241.241,0,0,1,.079-.061l.088-.092.023.031a.6.6,0,0,1,.662.078c.2.215.278.475.065.69L99.9,142.953l-.009.015a4.606,4.606,0,0,1-3.174,1.181" transform="translate(-70.146 -96.204)" fill="#211a5c" fill-rule="evenodd"/>
        <path id="Caminho_8535" data-name="Caminho 8535" d="M26.8,174.266l-.62-1.137-16.842,3.5c-3.272.814-4.045,1.887-6.316,4.159l.624,1.136c2.277-2.271,3.035-3.331,6.311-4.144Z" transform="translate(-2.478 -142.054)" fill="#fff" fill-rule="evenodd"/>
        <path id="Caminho_8536" data-name="Caminho 8536" d="M1.218,178.382l.074.153.144-.153c1.823-1.842,2.822-2.854,5.908-3.638l16.148-3.362-.079-.137L6.97,174.668c-2.763.69-3.581,1.52-5.372,3.331Zm-.051,1.6H1.089a.572.572,0,0,1-.4-.291l-.62-1.136a.549.549,0,0,1,.092-.645l.661-.676c1.823-1.842,2.827-2.854,5.9-3.622l16.865-3.516a.545.545,0,0,1,.588.277l.62,1.135a.543.543,0,0,1,.014.492.537.537,0,0,1-.38.307L7.589,175.819c-2.772.69-3.586,1.52-5.382,3.331l-.657.675a.584.584,0,0,1-.384.154" transform="translate(-0.001 -139.554)" fill="#211a5c" fill-rule="evenodd"/>
        <path id="Caminho_8537" data-name="Caminho 8537" d="M29.652,179.463,12.81,182.979a12.022,12.022,0,0,0-2.494.875,7.252,7.252,0,0,0-1.842,1.3L6.5,187.123l14.288,1.213Z" transform="translate(-5.332 -147.251)" fill="#c2a6fc" fill-rule="evenodd"/>
        <path id="Caminho_8538" data-name="Caminho 8538" d="M5.226,184.193l12.868,1.074,7.4-7.4L10.436,181a11.288,11.288,0,0,0-2.36.846,6.192,6.192,0,0,0-1.7,1.2Zm13.076,2.18H18.26l-14.293-1.2a.532.532,0,0,1-.463-.352.557.557,0,0,1,.125-.584l1.976-1.965a7.351,7.351,0,0,1,1.98-1.4,11.833,11.833,0,0,1,2.614-.936l16.856-3.514a.561.561,0,0,1,.588.275.549.549,0,0,1-.092.646L18.69,186.22a.593.593,0,0,1-.388.153" transform="translate(-2.847 -144.751)" fill="#211a5c" fill-rule="evenodd"/>
        <path id="Caminho_8539" data-name="Caminho 8539" d="M145.555,243.887l-1.98,1.981-1.328-.752,1.976-1.982a9.151,9.151,0,0,0,2.175-4.328l3.512-16.838,1.332.752-3.511,16.84a9.152,9.152,0,0,1-2.175,4.327" transform="translate(-116.714 -182.126)" fill="#fff" fill-rule="evenodd"/>
        <path id="Caminho_8540" data-name="Caminho 8540" d="M143.058,241.381h0Zm-2.42,1.106.347.2L142.669,241a8.578,8.578,0,0,0,2.036-4.083l3.429-16.424-.342-.2-3.359,16.119a9.71,9.71,0,0,1-2.314,4.605Zm.439,1.428a.569.569,0,0,1-.268-.078l-1.328-.752a.526.526,0,0,1-.273-.4.55.55,0,0,1,.153-.461l1.975-1.979a8.451,8.451,0,0,0,2.036-4.083l3.507-16.809a.551.551,0,0,1,.8-.368l1.332.753a.535.535,0,0,1,.264.582l-3.512,16.84a9.622,9.622,0,0,1-2.318,4.605h0l-1.98,1.979a.528.528,0,0,1-.384.17" transform="translate(-114.217 -179.62)" fill="#211a5c" fill-rule="evenodd"/>
        <path id="Caminho_8541" data-name="Caminho 8541" d="M144.412,221.968l-3.507,16.838a11.525,11.525,0,0,1-.889,2.487,7.206,7.206,0,0,1-1.291,1.841l-1.976,1.981-1.2-14.292Z" transform="translate(-111.217 -182.126)" fill="#c2a6fc" fill-rule="evenodd"/>
        <path id="Caminho_8542" data-name="Caminho 8542" d="M133.647,228.543l1.074,12.864,1.147-1.151a6.363,6.363,0,0,0,1.194-1.7,10.671,10.671,0,0,0,.843-2.364l3.137-15.043Zm.634,14.63a.416.416,0,0,1-.19-.047.521.521,0,0,1-.356-.461l-1.194-14.292a.529.529,0,0,1,.152-.428l8.866-8.859a.543.543,0,0,1,.916.492l-3.507,16.84a12.055,12.055,0,0,1-.935,2.625,7.392,7.392,0,0,1-1.392,1.98L134.664,243a.544.544,0,0,1-.384.17" transform="translate(-108.748 -179.629)" fill="#211a5c" fill-rule="evenodd"/>
        <path id="Caminho_8543" data-name="Caminho 8543" d="M154.785,56.127l.217.061.218.046.213.046.209.045.2.031.2.017.2.031.2.014.194.017h.38l.18-.017h.186l.176-.014.176-.031.167-.031.166-.031.167-.031.157-.046.157-.046.153-.047.144-.061.148-.061.139-.062.139-.076.13-.078.129-.076.125-.092.12-.078.116-.107.111-.092,16.375-15.427L160.406,23.645,144.823,40.178l-.1.106-.093.123-.092.107-.084.139-.083.123-.074.122-.074.137-.065.139-.06.153-.055.154-.056.137-.046.168-.042.154-.037.17-.032.153-.028.183-.019.17-.018.168-.014.184,0,.184v.185l0,.2.009.184.019.2.023.2.023.215.033.2.037.213.046.2.051.216.055.229.061.215.069.215.07.215.074.23.083.215.088.215.088.232.1.213.1.215.106.215.106.215.116.215.115.215.121.216.125.215.13.215.129.213.139.2.144.215.143.2.148.215.148.2.157.2.157.2.162.2.162.2.166.2.171.182.176.2.176.184.176.185.181.182.185.186.185.167.19.185.19.169.19.17.194.168.2.168.2.153.2.17.2.153.2.154.2.137.208.154.208.137.208.139.213.123.213.138.213.122.213.123.217.109.213.123.218.107.217.108.217.091.223.092.213.092.222.093.218.078.222.076.222.077.218.062Z" transform="translate(-117.943 -19.401)" fill="#fff" fill-rule="evenodd"/>
        <path id="Caminho_8544" data-name="Caminho 8544" d="M152.45,53.078l1.916.277,2.391-.615.4-.307L173.124,37.39,157.938,21.9,141.979,39.416l-.166,1.414.472,2.532,1.832,3.5,3.216,3.454,4.077,2.425Zm1.906,1.367-2.184-.308c0-.016-.009-.016-.009-.016l-3.4-1.473L144.9,49.532l-2.873-4.007-1.222-3.637-.083-1.059.454-2.381.759-1.166,15.6-16.533a.628.628,0,0,1,.388-.184h0a.537.537,0,0,1,.388.168L174.29,37.02a.566.566,0,0,1,.157.385.572.572,0,0,1-.176.4L156.416,54.121Z" transform="translate(-115.466 -16.875)" fill="#211a5c" fill-rule="evenodd"/>
        <path id="Caminho_8547" data-name="Caminho 8547" d="M251.663,3.033l-2.226,16.639a5.123,5.123,0,0,1-1.634,3.347,4.643,4.643,0,0,1-3.872.783,12.365,12.365,0,0,1-1.375-.277A16.43,16.43,0,0,1,235.5,19.2h0a16.4,16.4,0,0,1-4.331-7.062,9.465,9.465,0,0,1-.268-1.365,4.577,4.577,0,0,1,.782-3.884,5.091,5.091,0,0,1,3.345-1.627Z" transform="translate(-189.369 -2.489)" fill="#9466f2" fill-rule="evenodd"/>
        <path id="Caminho_8548" data-name="Caminho 8548" d="M248.55,1.174,232.615,3.309A4.522,4.522,0,0,0,229.6,4.767a3.924,3.924,0,0,0-.643,3.423,8.231,8.231,0,0,0,.255,1.319,15.859,15.859,0,0,0,4.187,6.816,15.763,15.763,0,0,0,6.815,4.19,8.332,8.332,0,0,0,1.3.245c1.6.246,2.689.047,3.447-.645a4.5,4.5,0,0,0,1.458-3.007Zm-5.862,20.785a10.291,10.291,0,0,1-1.318-.108,11.219,11.219,0,0,1-1.435-.291,16.779,16.779,0,0,1-7.3-4.468,16.84,16.84,0,0,1-4.474-7.306,10.108,10.108,0,0,1-.278-1.443,5,5,0,0,1,.916-4.314,5.6,5.6,0,0,1,3.674-1.8L249.115.009a.515.515,0,0,1,.458.153.529.529,0,0,1,.153.445L247.5,17.262a5.621,5.621,0,0,1-1.8,3.67,4.261,4.261,0,0,1-3,1.028" transform="translate(-186.89 0)" fill="#211a5c" fill-rule="evenodd"/>
        <path id="Caminho_8549" data-name="Caminho 8549" d="M226.122,139.354a8.818,8.818,0,0,0-7.681,2.074c-1.8,1.78-1.258,3.775,1.189,4.42a8.766,8.766,0,0,0,7.68-2.059c1.79-1.78,1.263-3.775-1.189-4.435" transform="translate(-178.361 -114.172)" fill="#c2a6fc" fill-rule="evenodd"/>
        <path id="Caminho_8550" data-name="Caminho 8550" d="M221.888,137.192a8.3,8.3,0,0,0-5.557,2.119,1.891,1.891,0,0,0,.944,3.515,8.157,8.157,0,0,0,7.153-1.92,1.89,1.89,0,0,0-.939-3.516,6.077,6.077,0,0,0-1.6-.2m-3.008,6.923a7.531,7.531,0,0,1-1.888-.23,2.962,2.962,0,0,1-1.429-5.357,9.308,9.308,0,0,1,8.2-2.2,2.962,2.962,0,0,1,1.435,5.357,9.384,9.384,0,0,1-6.321,2.426" transform="translate(-175.867 -111.673)" fill="#1a87c7" fill-rule="evenodd"/>
        <path id="Caminho_8551" data-name="Caminho 8551" d="M218.408,127.694l.3,1.09a3.516,3.516,0,0,0-1.429-1.52,6.569,6.569,0,0,0-2.258-.8,10.889,10.889,0,0,0-2.554-.138,14.4,14.4,0,0,0-3.035.554,12.905,12.905,0,0,0-3.29,1.487,7.907,7.907,0,0,0-2.5,2.442,3.614,3.614,0,0,0-.555,2.041,5.579,5.579,0,0,1,.786-4.421c2.235-3.315,7.94-3.469,11.683-2.639a4.168,4.168,0,0,1,2.855,1.9" transform="translate(-166.497 -102.865)" fill="#9466f2" fill-rule="evenodd"/>
        <path id="Caminho_8552" data-name="Caminho 8552" d="M208.894,123.39c-2.91.045-5.723.844-7.061,2.839a4.758,4.758,0,0,0-.463.86,9.589,9.589,0,0,1,1.981-1.688,14.163,14.163,0,0,1,3.428-1.55,15.576,15.576,0,0,1,2.115-.461m-8.3,7.492a.555.555,0,0,1-.528-.4,6.145,6.145,0,0,1,.86-4.866c2.258-3.347,7.931-3.839,12.253-2.856a4.775,4.775,0,0,1,3.23,2.194.375.375,0,0,1,.037.093l.287,1.075a.551.551,0,0,1-.333.66.559.559,0,0,1-.68-.277,2.906,2.906,0,0,0-1.226-1.288,6.113,6.113,0,0,0-2.064-.723,10.352,10.352,0,0,0-2.43-.121,12.981,12.981,0,0,0-2.915.52,12.829,12.829,0,0,0-3.151,1.428,7.282,7.282,0,0,0-2.323,2.272,3.033,3.033,0,0,0-.476,1.719.562.562,0,0,1-.463.569Z" transform="translate(-164.011 -100.358)" fill="#211a5c" fill-rule="evenodd"/>
        <path id="Caminho_8554" data-name="Caminho 8554" d="M213.115,140.633l.019.078a2.279,2.279,0,0,0,1.809,1.4,7.259,7.259,0,0,0,3.309.015,9.467,9.467,0,0,0,2.142-.736,7.2,7.2,0,0,0,1.546-1.044,3.752,3.752,0,0,0,.824-1.043,1.7,1.7,0,0,0,.185-1.229l-.019-.062a5.5,5.5,0,0,1-.735.875,8.036,8.036,0,0,1-2.281,1.489,10.449,10.449,0,0,1-2.716.769,9.032,9.032,0,0,1-2.207.03,5.292,5.292,0,0,1-1.874-.538m3.4,2.764a7.326,7.326,0,0,1-1.856-.23A3.325,3.325,0,0,1,212.087,141l-.583-2.179a.537.537,0,0,1,.375-.66.528.528,0,0,1,.671.369,1.61,1.61,0,0,0,.607.858,4.07,4.07,0,0,0,1.966.707,8.119,8.119,0,0,0,1.925-.031,9.366,9.366,0,0,0,2.425-.69,6.769,6.769,0,0,0,1.971-1.274,2.346,2.346,0,0,0,.92-2.195.552.552,0,0,1,.394-.661.541.541,0,0,1,.661.385l.579,2.164a2.8,2.8,0,0,1-.269,2.012,4.952,4.952,0,0,1-1.055,1.336,8.127,8.127,0,0,1-1.8,1.213,10.12,10.12,0,0,1-2.4.827,9.875,9.875,0,0,1-1.957.216" transform="translate(-173.525 -110.954)" fill="#211a5c" fill-rule="evenodd"/>
        <path id="Caminho_8555" data-name="Caminho 8555" d="M275.277,139.421l-.583-2.166-.023-.076-.023-.061-.028-.078.583,2.166.023.062.028.076Z" transform="translate(-225.328 -112.442)" fill="#fff" fill-rule="evenodd"/>
        <path id="Caminho_8556" data-name="Caminho 8556" d="M272.8,137.471a.543.543,0,0,1-.523-.4l-.023-.078-.055-.153-.579-2.164a.544.544,0,0,1,1.032-.338c0,.015.06.168.065.184l.607,2.256a.535.535,0,0,1-.375.662.589.589,0,0,1-.148.031" transform="translate(-222.851 -109.94)" fill="#1a87c7" fill-rule="evenodd"/>
        <path id="Caminho_8557" data-name="Caminho 8557" d="M217.169,134.153a2.83,2.83,0,0,0-2.189-1.8,8.837,8.837,0,0,0-7.681,2.073,2.414,2.414,0,0,0,1.189,4.42,8.762,8.762,0,0,0,7.68-2.059,2.8,2.8,0,0,0,1-2.639m-.749-3.225c1.768.476,2.846,1.428,3.156,2.58.31,1.168-.144,2.518-1.439,3.822a9.806,9.806,0,0,1-2.392,1.719,15.607,15.607,0,0,1-5.955,1.551,9.941,9.941,0,0,1-2.739-.308c-1.772-.477-2.846-1.428-3.155-2.579s.143-2.517,1.438-3.822a12.674,12.674,0,0,1,11.087-2.963" transform="translate(-167.22 -107.175)" fill="#9466f2" fill-rule="evenodd"/>
        <path id="Caminho_8558" data-name="Caminho 8558" d="M210.756,130.2a8.807,8.807,0,0,0-2.226.307,7.512,7.512,0,0,0-3.35,1.811,1.891,1.891,0,0,0,.944,3.515,8.157,8.157,0,0,0,7.153-1.92,1.89,1.89,0,0,0-.939-3.516,5.849,5.849,0,0,0-1.582-.2m-3.026,6.923a7.546,7.546,0,0,1-1.888-.23,2.953,2.953,0,0,1-1.43-5.342,8.627,8.627,0,0,1,3.836-2.1,8.83,8.83,0,0,1,4.368-.109,3.318,3.318,0,0,1,2.573,2.18h0a3.33,3.33,0,0,1-1.143,3.178,9.385,9.385,0,0,1-6.321,2.426m3.7-8.457a8.815,8.815,0,0,1,2.345.291,3.5,3.5,0,0,1,2.767,2.194c.273,1.014-.19,2.18-1.3,3.3a9.745,9.745,0,0,1-2.263,1.629,15.446,15.446,0,0,1-5.714,1.489,9.927,9.927,0,0,1-2.587-.292,3.507,3.507,0,0,1-2.767-2.2c-.273-1.014.185-2.18,1.3-3.3a11.159,11.159,0,0,1,4.946-2.672,12.991,12.991,0,0,1,3.272-.444m-4.41,9.991a10.2,10.2,0,0,1-2.619-.336c-1.906-.508-3.16-1.551-3.54-2.964-.375-1.4.186-2.946,1.583-4.343a12.189,12.189,0,0,1,5.432-2.948,12.345,12.345,0,0,1,6.182-.168c1.9.522,3.16,1.565,3.54,2.979a4.572,4.572,0,0,1-1.578,4.343,10.405,10.405,0,0,1-2.527,1.811,15.916,15.916,0,0,1-6.2,1.613,1.775,1.775,0,0,1-.273.014" transform="translate(-164.716 -104.681)" fill="#211a5c" fill-rule="evenodd"/>
      </g>
    </g>
    <rect id="Ret창ngulo_6933" data-name="Ret창ngulo 6933" width="75" height="74" transform="translate(1364 2522)" fill="none"/>
  </g>
</svg>
