<svg xmlns="http://www.w3.org/2000/svg" width="75" height="74" viewBox="0 0 75 74">
  <g id="Grupo_19242" data-name="Grupo 19242" transform="translate(-856 -2522)">
    <g id="Grupo_2275" data-name="Grupo 2275" transform="translate(856 2522.245)">
      <g id="Grupo_2276" data-name="Grupo 2276">
        <path id="Caminho_2405" data-name="Caminho 2405" d="M41.436,69.811,40.854,70.9a3.511,3.511,0,0,1-2.514,1.406A6.549,6.549,0,0,1,35.7,72.2a3.159,3.159,0,0,1-2.009-1.3l-.576-1.091a15.721,15.721,0,0,0,8.319,0" fill="#c2a6fc"/>
        <path id="Caminho_2406" data-name="Caminho 2406" d="M37.255,72.882a7.063,7.063,0,0,1-1.676-.208,3.573,3.573,0,0,1-2.326-1.535l-.588-1.1a.482.482,0,0,1,.063-.539.515.515,0,0,1,.531-.154,15.167,15.167,0,0,0,8.033,0,.516.516,0,0,1,.532.154.485.485,0,0,1,.061.539l-.579,1.087a3.892,3.892,0,0,1-2.877,1.663,8.072,8.072,0,0,1-1.174.092M34.073,70.55l.07.129a2.619,2.619,0,0,0,1.7,1.054,6.05,6.05,0,0,0,2.419.1,2.957,2.957,0,0,0,2.154-1.162l.062-.116a16.626,16.626,0,0,1-6.4,0" fill="#211a5c"/>
        <path id="Caminho_2407" data-name="Caminho 2407" d="M43.717,68.881c2.446-1.361,3.213-3.31,2.294-5.045l-1.747-3.287H30.284l-1.748,3.287c-.916,1.735-.152,3.684,2.294,5.045a14.669,14.669,0,0,0,12.887,0" fill="#c2a6fc"/>
        <path id="Caminho_2408" data-name="Caminho 2408" d="M37.275,70.852a14.088,14.088,0,0,1-6.7-1.547c-2.621-1.461-3.573-3.64-2.492-5.69l1.75-3.291a.51.51,0,0,1,.447-.265h13.98a.514.514,0,0,1,.45.265l1.747,3.291c1.085,2.046.132,4.226-2.49,5.69a14.085,14.085,0,0,1-6.7,1.547m-6.682-9.817-1.606,3.024c-.828,1.564-.044,3.207,2.1,4.4a14.137,14.137,0,0,0,12.383,0c2.139-1.2,2.923-2.843,2.1-4.4l-1.608-3.024Zm13.124,7.846h0Z" fill="#211a5c"/>
        <path id="Caminho_2409" data-name="Caminho 2409" d="M55.846,28.229c2.57,7.852-.233,13.208-3.138,18.017-1.832,3.035-3.134,3.466-4.14,6.913-.606,2.075-.393,3.677-2.083,5.375-4.626,4.634-14.286,4.767-18.421,0-1.561-1.806-1.473-3.3-2.082-5.375-1.008-3.447-2.31-3.878-4.139-6.913-2.905-4.809-5.71-10.165-3.136-18.017,2.644-8.067,10.606-12.1,18.569-12.1s15.925,4.032,18.57,12.1" fill="#fff"/>
        <path id="Caminho_2410" data-name="Caminho 2410" d="M37.028,62.55c-.185,0-.372-.008-.56-.013a12.07,12.07,0,0,1-8.792-3.693,8.1,8.1,0,0,1-1.811-4.054c-.1-.469-.213-.962-.369-1.5a10.731,10.731,0,0,0-2.264-4.208,23.969,23.969,0,0,1-1.825-2.585c-3.15-5.212-5.76-10.543-3.183-18.411C20.7,20.523,28.18,15.639,37.275,15.639s16.573,4.884,19.05,12.445c2.578,7.868-.033,13.2-3.182,18.411a23.809,23.809,0,0,1-1.827,2.585,10.718,10.718,0,0,0-2.263,4.208c-.164.565-.265,1.091-.365,1.6a6.721,6.721,0,0,1-1.84,3.984,13.968,13.968,0,0,1-9.82,3.681m.247-45.935c-8.646,0-15.748,4.618-18.09,11.763-2.453,7.486.064,12.608,3.091,17.623a22.611,22.611,0,0,0,1.762,2.49,11.7,11.7,0,0,1,2.43,4.535c.162.556.275,1.072.384,1.561a7.128,7.128,0,0,0,1.6,3.632,11.076,11.076,0,0,0,8.055,3.343,13.068,13.068,0,0,0,9.617-3.37A5.8,5.8,0,0,0,47.7,54.7c.1-.527.211-1.084.384-1.677a11.671,11.671,0,0,1,2.431-4.535A23.032,23.032,0,0,0,52.274,46c3.027-5.015,5.543-10.137,3.09-17.623-2.344-7.145-9.443-11.763-18.089-11.763" fill="#211a5c"/>
        <path id="Caminho_2411" data-name="Caminho 2411" d="M42.509,65.674c2.892-1.615,2.892-4.228,0-5.847a11.958,11.958,0,0,0-10.47,0c-2.89,1.619-2.89,4.232,0,5.847a11.925,11.925,0,0,0,10.47,0" fill="#fff"/>
        <path id="Caminho_2412" data-name="Caminho 2412" d="M37.275,67.364A11.506,11.506,0,0,1,31.788,66.1c-1.562-.871-2.422-2.058-2.422-3.345s.86-2.473,2.422-3.344a12.517,12.517,0,0,1,10.974,0c1.56.871,2.419,2.058,2.419,3.344s-.859,2.474-2.419,3.345a11.5,11.5,0,0,1-5.487,1.266m0-8.262a10.457,10.457,0,0,0-4.984,1.149,3.114,3.114,0,0,0-1.915,2.5,3.109,3.109,0,0,0,1.915,2.5,11.364,11.364,0,0,0,9.968,0,3.106,3.106,0,0,0,1.913-2.5,3.111,3.111,0,0,0-1.913-2.5A10.468,10.468,0,0,0,37.275,59.1" fill="#211a5c"/>
        <path id="Caminho_2413" data-name="Caminho 2413" d="M43.717,66.184c2.446-1.364,3.213-3.315,2.294-5.041l-1.747-3.291H30.284l-1.748,3.291c-.916,1.726-.152,3.677,2.294,5.041a14.662,14.662,0,0,0,12.887,0" fill="#c2a6fc"/>
        <path id="Caminho_2414" data-name="Caminho 2414" d="M37.276,68.156a14.083,14.083,0,0,1-6.7-1.548c-2.621-1.461-3.574-3.642-2.492-5.69l1.749-3.29a.51.51,0,0,1,.447-.266H44.265a.51.51,0,0,1,.449.266l1.748,3.29c1.085,2.048.132,4.226-2.49,5.69a14.088,14.088,0,0,1-6.7,1.548m-6.682-9.818-1.607,3.025c-.828,1.563-.044,3.208,2.1,4.4a14.137,14.137,0,0,0,12.383,0c2.139-1.195,2.924-2.84,2.1-4.4l-1.608-3.025Z" fill="#211a5c"/>
        <path id="Caminho_2415" data-name="Caminho 2415" d="M43.8,53.093c3.6,2.008,3.6,5.269,0,7.279a14.845,14.845,0,0,1-13.039,0c-3.6-2.01-3.6-5.271,0-7.279a14.865,14.865,0,0,1,13.039,0" fill="#c2a6fc"/>
        <path id="Caminho_2416" data-name="Caminho 2416" d="M37.275,62.358A14.243,14.243,0,0,1,30.5,60.794c-1.905-1.062-2.955-2.506-2.955-4.063s1.049-3,2.955-4.063a15.463,15.463,0,0,1,13.543,0C45.951,53.732,47,55.175,47,56.731s-1.05,3-2.955,4.063a14.239,14.239,0,0,1-6.771,1.564m0-10.29a13.134,13.134,0,0,0-6.268,1.448c-1.579.88-2.451,2.021-2.451,3.215s.872,2.337,2.451,3.216a14.285,14.285,0,0,0,12.536,0c1.578-.879,2.449-2.021,2.449-3.216s-.871-2.335-2.449-3.215a13.137,13.137,0,0,0-6.268-1.448" fill="#211a5c"/>
        <path id="Caminho_2417" data-name="Caminho 2417" d="M46.484,56.981v3.1a3.425,3.425,0,0,1-.661,1.689c-1.261,1.735-3.848,2.656-5.924,3a14.588,14.588,0,0,1-9.472-1.49A4.666,4.666,0,0,1,28.1,60.325l-.033-.245v-3.1a3.231,3.231,0,0,0,.255.976c.808,1.854,3.183,2.958,5.073,3.447,3.331.864,7.785.6,10.731-1.223a4.676,4.676,0,0,0,2.334-2.954Z" fill="#c2a6fc"/>
        <path id="Caminho_2418" data-name="Caminho 2418" d="M37.258,65.466a13.739,13.739,0,0,1-7.1-1.775A5.078,5.078,0,0,1,27.6,60.4l-.037-.265,0-3.158a.493.493,0,0,1,.473-.486.5.5,0,0,1,.53.424,2.758,2.758,0,0,0,.219.846c.885,2.026,3.851,2.937,4.741,3.166,3.5.909,7.751.432,10.329-1.162a4.312,4.312,0,0,0,2.1-2.622l.028-.225a.471.471,0,0,1,.532-.427.493.493,0,0,1,.473.486v3.1a3.94,3.94,0,0,1-.756,1.972c-1.612,2.219-4.907,2.975-6.25,3.2a17.046,17.046,0,0,1-2.726.216m-8.689-6.191.028.992a4.3,4.3,0,0,0,2.1,2.6,14.007,14.007,0,0,0,9.116,1.419c.951-.157,4.16-.826,5.593-2.8a3,3,0,0,0,.575-1.44v-.793A6.734,6.734,0,0,1,44.4,60.591c-3.287,2.029-7.96,2.1-11.136,1.283a9.678,9.678,0,0,1-4.691-2.6" fill="#211a5c"/>
        <path id="Caminho_2419" data-name="Caminho 2419" d="M40.533,53.188v2.694l0,.02-.005.016-.011.021-.01.021-.016.016L40.47,56l-.023.016-.023.012-4.7,2.623-.029.017-.03.013-.031.007L35.6,58.7l-.036.008-.036.005-.037,0h-.071l-.038,0-.033-.005-.036-.008-.033-.009-.032-.007-.029-.013-.029-.017-.031-.017-.34-.191-.869-.484-.026-.018-.025-.016-.017-.018-.015-.019-.013-.018-.009-.02-.007-.02V55.134l.007.021.009.021.013.017.015.021.017.016.025.017.026.016.869.486.34.19.031.016.029.013.029.017.032.009.033.007.036.009.033,0,.038,0H35.5l.037,0,.036,0L35.6,56l.033-.007.031-.009.03-.013.029-.017,4.7-2.622.023-.012.023-.021.019-.012.016-.021.01-.02.011-.022.005-.021Z" fill="#c2a6fc"/>
        <path id="Caminho_2420" data-name="Caminho 2420" d="M35.447,59.2a1.37,1.37,0,0,1-.162-.017c-.022,0-.11-.021-.132-.029a1.058,1.058,0,0,1-.121-.038c-.023-.011-.105-.054-.125-.066L33.7,58.379c-.02-.017-.143-.1-.161-.116a.971.971,0,0,1-.1-.116c-.015-.025-.05-.092-.062-.12a1.5,1.5,0,0,1-.039-.167l0-2.743a.494.494,0,0,1,.487-.489.487.487,0,0,1,.484.3l1.1.584,4.662-2.551a.462.462,0,0,1,.505-.307.521.521,0,0,1,.456.531v2.694c0,.012-.015.124-.018.136a.711.711,0,0,1-.046.129.821.821,0,0,1-.072.112c-.012.012-.107.107-.123.12a.56.56,0,0,1-.106.071L35.98,59.073l-.122.054c-.008,0-.144.044-.156.044a1.212,1.212,0,0,1-.13.021.928.928,0,0,1-.125.009m-1.1-1.59,1.067.6,4.615-2.528,0-1.563L35.98,56.379a.9.9,0,0,1-.122.054l-.144.046-.142.025h-.13l-.157-.009c-.017-.008-.151-.037-.166-.04A.844.844,0,0,1,35,56.4l-.648-.357Z" fill="#211a5c"/>
        <path id="Caminho_2421" data-name="Caminho 2421" d="M39.18,52.347l1.242.692c.147.08.147.216,0,.3l-4.7,2.618a.6.6,0,0,1-.534,0l-.031-.016-.339-.191-.87-.485c-.148-.08-.148-.216,0-.3l4.692-2.618a.6.6,0,0,1,.534,0" fill="#c2a6fc"/>
        <path id="Caminho_2422" data-name="Caminho 2422" d="M35.46,56.505a1.1,1.1,0,0,1-.52-.125L33.7,55.687a.631.631,0,0,1,0-1.141l4.7-2.623a1.131,1.131,0,0,1,1.036,0l1.239.693a.661.661,0,0,1,.362.573.65.65,0,0,1-.359.568l-4.7,2.623a1.106,1.106,0,0,1-.52.125M34.7,55.118l.717.4,4.261-2.331-.734-.411Zm5.472-1.655h0Z" fill="#211a5c"/>
        <path id="Caminho_2423" data-name="Caminho 2423" d="M35.658,55.312a.494.494,0,0,1-.5-.485,39.931,39.931,0,0,0-2.983-14.714.482.482,0,0,1,.274-.639.514.514,0,0,1,.659.265,41,41,0,0,1,3.059,15.088.494.494,0,0,1-.5.485m3.174-1.767h0a.5.5,0,0,1-.5-.489c.015-6.482,2.467-15.545,3.219-18.168a.509.509,0,0,1,.621-.344.49.49,0,0,1,.352.6C40.986,40.491,39.348,48,39.337,53.056a.5.5,0,0,1-.505.489" fill="#211a5c"/>
        <path id="Caminho_2424" data-name="Caminho 2424" d="M33.04,41.387a.887.887,0,0,1-.514-.157,1.2,1.2,0,0,1-.394-1.295l.281-1.64a3.108,3.108,0,0,1,1.422-2.111A1.033,1.033,0,0,1,34.9,36.2a1.193,1.193,0,0,1,.39,1.29l-.276,1.645a3.111,3.111,0,0,1-1.422,2.11,1.21,1.21,0,0,1-.554.142m1.247-4.419a2.749,2.749,0,0,0-.877,1.486l-.281,1.638a.632.632,0,0,0,.01.37,2.757,2.757,0,0,0,.879-1.486l.28-1.643a.611.611,0,0,0-.011-.365" fill="#211a5c"/>
        <path id="Caminho_2425" data-name="Caminho 2425" d="M34.867,40.765a.89.89,0,0,1-.512-.157,1.2,1.2,0,0,1-.394-1.3l.45-2.646a3.1,3.1,0,0,1,1.42-2.113,1.029,1.029,0,0,1,1.067.018,1.193,1.193,0,0,1,.391,1.294l-.446,2.643a3.115,3.115,0,0,1-1.421,2.112,1.245,1.245,0,0,1-.555.145m1.417-5.423a2.75,2.75,0,0,0-.879,1.485l-.446,2.64a.61.61,0,0,0,.008.368,2.721,2.721,0,0,0,.881-1.485l.5.079-.5-.079.446-2.644a.606.606,0,0,0-.01-.364" fill="#211a5c"/>
        <path id="Caminho_2426" data-name="Caminho 2426" d="M36.689,40.172a.873.873,0,0,1-.513-.162,1.2,1.2,0,0,1-.392-1.291l.618-3.648a3.112,3.112,0,0,1,1.422-2.112,1.018,1.018,0,0,1,1.069.017,1.2,1.2,0,0,1,.39,1.29l-.617,3.648a3.117,3.117,0,0,1-1.422,2.112,1.237,1.237,0,0,1-.555.146m1.588-6.432a2.81,2.81,0,0,0-.88,1.49l-.616,3.643a.624.624,0,0,0,.009.369,2.79,2.79,0,0,0,.88-1.486l.618-3.647a.617.617,0,0,0-.011-.369m-.109,4.095h0Z" fill="#211a5c"/>
        <path id="Caminho_2427" data-name="Caminho 2427" d="M38.7,38.474a.9.9,0,0,1-.516-.157,1.2,1.2,0,0,1-.391-1.3l.448-2.639a3.123,3.123,0,0,1,1.421-2.116,1.024,1.024,0,0,1,1.068.016,1.2,1.2,0,0,1,.391,1.295l-.448,2.643a3.085,3.085,0,0,1-1.418,2.107,1.178,1.178,0,0,1-.555.146m1.416-5.423a2.768,2.768,0,0,0-.88,1.486l-.447,2.642a.64.64,0,0,0,.009.37,2.757,2.757,0,0,0,.88-1.486l.449-2.647a.611.611,0,0,0-.011-.365" fill="#211a5c"/>
        <path id="Caminho_2428" data-name="Caminho 2428" d="M40.667,37.017a.868.868,0,0,1-.512-.157,1.191,1.191,0,0,1-.392-1.29l.276-1.639a3.128,3.128,0,0,1,1.423-2.116,1.014,1.014,0,0,1,1.067.016,1.2,1.2,0,0,1,.391,1.294l-.278,1.64a3.117,3.117,0,0,1-1.42,2.113,1.231,1.231,0,0,1-.555.139M41.914,32.6a2.776,2.776,0,0,0-.88,1.489l-.275,1.635a.611.611,0,0,0,.01.37,2.723,2.723,0,0,0,.878-1.486l.277-1.639a.616.616,0,0,0-.009-.369Z" fill="#211a5c"/>
        <path id="Caminho_2429" data-name="Caminho 2429" d="M37.414,13.137a.7.7,0,0,1-.708-.684V.681a.707.707,0,0,1,1.413,0V12.453a.7.7,0,0,1-.7.684" fill="#c2a6fc"/>
        <path id="Caminho_2430" data-name="Caminho 2430" d="M19.226,18.979a.715.715,0,0,1-.5-.2l-8.544-8.249a.668.668,0,0,1,0-.964.728.728,0,0,1,1,0l8.542,8.246a.666.666,0,0,1,0,.967.711.711,0,0,1-.5.2" fill="#c2a6fc"/>
        <path id="Caminho_2431" data-name="Caminho 2431" d="M12.659,36.49H.7a.682.682,0,1,1,0-1.364H12.659a.682.682,0,1,1,0,1.364" fill="#c2a6fc"/>
        <path id="Caminho_2432" data-name="Caminho 2432" d="M55.611,18.979a.7.7,0,0,1-.5-.2.665.665,0,0,1,0-.963l8.547-8.246a.726.726,0,0,1,1,0,.664.664,0,0,1,0,.964l-8.546,8.249a.719.719,0,0,1-.5.2" fill="#c2a6fc"/>
        <path id="Caminho_2433" data-name="Caminho 2433" d="M74.133,36.49H62.18a.682.682,0,1,1,0-1.364H74.133a.682.682,0,1,1,0,1.364" fill="#c2a6fc"/>
      </g>
    </g>
    <rect id="Retângulo_6929" data-name="Retângulo 6929" width="75" height="74" transform="translate(856 2522)" fill="none"/>
  </g>
</svg>
