<svg xmlns="http://www.w3.org/2000/svg" xmlns:xlink="http://www.w3.org/1999/xlink" width="75" height="74" viewBox="0 0 75 74">
  <defs>
    <clipPath id="clip-path">
      <rect id="Ret창ngulo_6918" data-name="Ret창ngulo 6918" width="57.966" height="64.148" fill="none"/>
    </clipPath>
  </defs>
  <g id="Grupo_19240" data-name="Grupo 19240" transform="translate(-348 -2522)">
    <g id="Grupo_19218" data-name="Grupo 19218" transform="translate(348 2531.391)">
      <g id="Grupo_19217" data-name="Grupo 19217" clip-path="url(#clip-path)">
        <path id="Caminho_8509" data-name="Caminho 8509" d="M10.285,46.96a5.189,5.189,0,1,0-5.193-5.189,5.189,5.189,0,0,0,5.193,5.189" transform="translate(-3.572 -25.664)" fill="#c2a6fc" fill-rule="evenodd"/>
        <path id="Caminho_8510" data-name="Caminho 8510" d="M9.236,35.968A4.737,4.737,0,1,0,13.971,40.7a4.736,4.736,0,0,0-4.735-4.735m0,10.378A5.643,5.643,0,1,1,14.879,40.7a5.645,5.645,0,0,1-5.643,5.643" transform="translate(-2.524 -24.597)" fill="#211a5c" fill-rule="evenodd"/>
        <path id="Caminho_8511" data-name="Caminho 8511" d="M36.641,72.727A25.722,25.722,0,1,0,10.919,47,25.73,25.73,0,0,0,36.641,72.727" transform="translate(-7.66 -14.931)" fill="#fff" fill-rule="evenodd"/>
        <path id="Caminho_8512" data-name="Caminho 8512" d="M35.591,20.677A25.271,25.271,0,1,0,60.859,45.945,25.294,25.294,0,0,0,35.591,20.677m0,51.445A26.175,26.175,0,1,1,61.767,45.945,26.2,26.2,0,0,1,35.591,72.121" transform="translate(-6.609 -13.871)" fill="#211a5c" fill-rule="evenodd"/>
        <path id="Caminho_8513" data-name="Caminho 8513" d="M43.243,68.267c5.231-.631,9.393-.369,12.2.592A7.128,7.128,0,0,1,58.976,71.2a4.39,4.39,0,0,1,.753,3.682,9.487,9.487,0,0,1-2.093,4c-.011-.712-.077-1.431-.15-2.151A6.493,6.493,0,0,0,58.38,74.6a3.144,3.144,0,0,0-.5-2.581,5.916,5.916,0,0,0-2.9-1.85c-2.616-.9-6.559-1.135-11.559-.535a74.68,74.68,0,0,0-20.534,5.84c-6.42,2.842-11.909,6.347-14.944,9.844A9,9,0,0,0,5.726,89.2a3.1,3.1,0,0,0,.508,2.576,5.885,5.885,0,0,0,2.886,1.85,13.356,13.356,0,0,0,1.47.4c.369.553.765,1.089,1.173,1.608a16.23,16.23,0,0,1-3.089-.7A7.18,7.18,0,0,1,5.127,92.6a4.491,4.491,0,0,1-.754-3.681,10.29,10.29,0,0,1,2.527-4.5c3.178-3.655,8.843-7.286,15.429-10.2a76.026,76.026,0,0,1,20.915-5.943" transform="translate(-2.991 -47.652)" fill="#c2a6fc" fill-rule="evenodd"/>
        <path id="Caminho_8514" data-name="Caminho 8514" d="M42.227,67.652A75.192,75.192,0,0,0,21.439,73.56c-6.8,3.02-12.225,6.6-15.264,10.086a9.843,9.843,0,0,0-2.424,4.3,4.016,4.016,0,0,0,.678,3.32A6.689,6.689,0,0,0,7.76,93.448a14.274,14.274,0,0,0,1.889.5c-.143-.188-.27-.381-.4-.573a13.1,13.1,0,0,1-1.343-.38,6.3,6.3,0,0,1-3.1-2.009,3.519,3.519,0,0,1-.585-2.938,9.5,9.5,0,0,1,2.308-4.086c2.989-3.431,8.348-6.966,15.1-9.962a74.794,74.794,0,0,1,20.66-5.87c4.924-.6,9-.4,11.779.554a6.29,6.29,0,0,1,3.1,2.008,3.526,3.526,0,0,1,.589,2.938,7.044,7.044,0,0,1-.88,2.139c.038.258.061.516.076.774a8.122,8.122,0,0,0,1.277-2.812,4.018,4.018,0,0,0-.681-3.323,6.7,6.7,0,0,0-3.327-2.182c-2.847-.973-6.993-1.173-12-.569M10.7,95.029a.214.214,0,0,1-.066-.008A16.409,16.409,0,0,1,7.464,94.3,7.64,7.64,0,0,1,3.7,91.8a4.822,4.822,0,0,1-.831-4.043,10.861,10.861,0,0,1,2.616-4.708c3.127-3.585,8.651-7.251,15.594-10.321a76.166,76.166,0,0,1,21.042-5.981c5.131-.62,9.42-.4,12.394.616a7.678,7.678,0,0,1,3.766,2.5,4.843,4.843,0,0,1,.828,4.044,10.1,10.1,0,0,1-2.182,4.185.452.452,0,0,1-.8-.27c-.027-.673-.076-1.385-.153-2.111a.461.461,0,0,1,.065-.285,6.447,6.447,0,0,0,.843-1.981,2.711,2.711,0,0,0-.435-2.216,5.41,5.41,0,0,0-2.666-1.7c-2.653-.908-6.585-1.089-11.37-.512A74.049,74.049,0,0,0,22,74.822c-6.635,2.943-11.879,6.4-14.791,9.733a8.614,8.614,0,0,0-2.1,3.673,2.644,2.644,0,0,0,.435,2.216,5.35,5.35,0,0,0,2.666,1.692,11.947,11.947,0,0,0,1.4.389.469.469,0,0,1,.281.188c.369.543.754,1.073,1.161,1.582a.461.461,0,0,1,.039.5.45.45,0,0,1-.4.231" transform="translate(-1.925 -46.587)" fill="#211a5c" fill-rule="evenodd"/>
        <path id="Caminho_8515" data-name="Caminho 8515" d="M73.246,6.018a10.511,10.511,0,0,1,3.678-4.093A2.881,2.881,0,0,1,79.7,1.848a5.024,5.024,0,0,1,2.027,2.386,18.712,18.712,0,0,1,1.4,4.923c-.5-.192-1-.366-1.492-.527A16.271,16.271,0,0,0,80.5,4.837a3.784,3.784,0,0,0-1.431-1.761,1.576,1.576,0,0,0-1.508.08A9.371,9.371,0,0,0,74.42,6.723c-2.5,4.2-4.771,10.986-6.421,18.567A113.736,113.736,0,0,0,65.322,48.6c0,6.066.689,10.44,1.85,12.852A3.8,3.8,0,0,0,68.6,63.215a1.577,1.577,0,0,0,1.508-.081,9.4,9.4,0,0,0,3.138-3.567c.127-.223.269-.458.4-.7h.189c.476,0,.934-.011,1.393-.038-.254.508-.524.992-.8,1.443a10.409,10.409,0,0,1-3.685,4.093,2.869,2.869,0,0,1-2.77.081,5.033,5.033,0,0,1-2.031-2.389c-1.25-2.592-2-7.177-2-13.451A115.435,115.435,0,0,1,66.649,25c1.673-7.7,4.008-14.641,6.6-18.979" transform="translate(-44.85 -1.071)" fill="#c2a6fc" fill-rule="evenodd"/>
        <path id="Caminho_8516" data-name="Caminho 8516" d="M72.2,4.947,77.38.908a2.782,2.782,0,0,0-1.289.35,10.129,10.129,0,0,0-3.511,3.919c-2.475,4.158-4.8,10.852-6.532,18.845a113.993,113.993,0,0,0-2.7,23.511c0,5.943.689,10.648,1.95,13.256a4.572,4.572,0,0,0,1.838,2.181,2.394,2.394,0,0,0,2.347-.078A10.121,10.121,0,0,0,72.99,58.97c.139-.235.281-.478.42-.727-.192,0-.369.007-.55.007-.088.162-.188.324-.28.478a9.7,9.7,0,0,1-3.317,3.738,1.967,1.967,0,0,1-1.912.077,4.189,4.189,0,0,1-1.635-1.961C64.478,58,63.828,53.493,63.828,47.534A113.676,113.676,0,0,1,66.5,24.123c1.739-7.959,4.047-14.6,6.485-18.7a9.69,9.69,0,0,1,3.316-3.735A1.989,1.989,0,0,1,78.221,1.6a4.208,4.208,0,0,1,1.632,1.962,16.5,16.5,0,0,1,1.138,3.646c.165.058.346.116.507.178a16.732,16.732,0,0,0-1.223-4.032,4.544,4.544,0,0,0-1.838-2.18A2.22,2.22,0,0,0,77.38.908m-9.19,63.239a3.112,3.112,0,0,1-1.477-.374,5.411,5.411,0,0,1-2.235-2.592c-1.339-2.767-2.043-7.486-2.043-13.648a115.549,115.549,0,0,1,2.719-23.7c1.762-8.086,4.12-14.876,6.647-19.114A11.008,11.008,0,0,1,75.667.454,3.3,3.3,0,0,1,78.861.373a5.447,5.447,0,0,1,2.23,2.594,18.755,18.755,0,0,1,1.444,5.046.454.454,0,0,1-.165.423.449.449,0,0,1-.447.073c-.485-.188-.969-.362-1.465-.519a.449.449,0,0,1-.308-.346,15.607,15.607,0,0,0-1.112-3.682A3.36,3.36,0,0,0,77.8,2.4a1.133,1.133,0,0,0-1.085.081,9.039,9.039,0,0,0-2.947,3.4c-2.4,4.023-4.658,10.566-6.37,18.433A112.982,112.982,0,0,0,64.72,47.534c0,5.739.649,10.236,1.811,12.655a3.4,3.4,0,0,0,1.238,1.554,1.123,1.123,0,0,0,1.085-.081,9.146,9.146,0,0,0,2.946-3.4c.127-.219.27-.449.4-.689a.45.45,0,0,1,.4-.23h.189c.461,0,.923-.016,1.369-.039a.471.471,0,0,1,.408.208.477.477,0,0,1,.023.454c-.266.515-.546,1-.816,1.461A10.913,10.913,0,0,1,69.9,63.694a3.725,3.725,0,0,1-1.712.454" transform="translate(-43.802 0)" fill="#211a5c" fill-rule="evenodd"/>
        <path id="Caminho_8517" data-name="Caminho 8517" d="M42.627,22.256a23.52,23.52,0,0,1,11.5-3.554,12.2,12.2,0,0,1,5.847,1.385,10.556,10.556,0,0,1,4.108,4.055A16.194,16.194,0,0,1,66.007,32.3c0,.45-.016.9-.038,1.358a27.277,27.277,0,0,0-1.381-2.4,14.013,14.013,0,0,0-1.709-6.427,8.982,8.982,0,0,0-3.573-3.523,10.752,10.752,0,0,0-5.182-1.22,22.16,22.16,0,0,0-10.809,3.366A47.168,47.168,0,0,0,27.759,38.89c-3.981,6.27-6.432,13.166-6.432,19.2a14.9,14.9,0,0,0,1.724,7.471l.012,0a9.1,9.1,0,0,0,3.573,3.528A10.752,10.752,0,0,0,31.818,70.3a16.389,16.389,0,0,0,3.766-.461,26.634,26.634,0,0,0,2.677.649,19.388,19.388,0,0,1-6.443,1.2A12.135,12.135,0,0,1,25.975,70.3a10.437,10.437,0,0,1-4.112-4.047v0a16.221,16.221,0,0,1-1.924-8.159c0-6.3,2.539-13.463,6.647-19.945a48.578,48.578,0,0,1,16.04-15.891" transform="translate(-13.988 -13.121)" fill="#9466f2" fill-rule="evenodd"/>
        <path id="Caminho_8518" data-name="Caminho 8518" d="M41.578,21.253h0Zm-20.353,43.8A9.939,9.939,0,0,0,25.142,68.9c2.77,1.508,6.366,1.735,10.313.661-.308-.081-.627-.169-.931-.261a13.009,13.009,0,0,1-9.151-.823,9.627,9.627,0,0,1-3.754-3.7,15.3,15.3,0,0,1-1.8-7.693c0-5.923,2.308-12.828,6.509-19.444A47.332,47.332,0,0,1,42.041,22.057c6.239-3.6,12.312-4.389,16.436-2.154a9.671,9.671,0,0,1,3.751,3.7,14.485,14.485,0,0,1,1.758,6.508c.181.277.346.555.512.835a15.292,15.292,0,0,0-1.862-7.578A9.951,9.951,0,0,0,58.7,19.484c-4.262-2.316-10.489-1.535-16.894,2.161-.016,0-.027.012-.039.016A47.953,47.953,0,0,0,25.919,37.385c-4.235,6.694-6.57,13.691-6.57,19.7a15.719,15.719,0,0,0,1.862,7.932.031.031,0,0,0,.016.031m9.544,6.086A12.6,12.6,0,0,1,24.707,69.7a10.927,10.927,0,0,1-4.285-4.224c0-.012-.012-.02-.012-.03a16.625,16.625,0,0,1-1.965-8.355c0-6.181,2.385-13.352,6.708-20.187a48.854,48.854,0,0,1,16.194-16.04c.016,0,.027-.012.027-.016C48.061,17,54.6,16.222,59.139,18.687a10.939,10.939,0,0,1,4.288,4.224,16.607,16.607,0,0,1,1.978,8.382c0,.458-.012.92-.039,1.385a.451.451,0,0,1-.854.177A25.1,25.1,0,0,0,63.158,30.5a.446.446,0,0,1-.065-.223,13.806,13.806,0,0,0-1.646-6.224,8.656,8.656,0,0,0-3.4-3.35c-3.831-2.081-9.6-1.293-15.544,2.142A46.328,46.328,0,0,0,27.1,38.129c-4.112,6.473-6.37,13.205-6.37,18.96A14.363,14.363,0,0,0,22.4,64.331a8.613,8.613,0,0,0,3.409,3.351,12.16,12.16,0,0,0,8.624.716.4.4,0,0,1,.231.008,24.98,24.98,0,0,0,2.643.635.448.448,0,0,1,.369.408.466.466,0,0,1-.307.465,19.984,19.984,0,0,1-6.6,1.224" transform="translate(-12.94 -12.117)" fill="#211a5c" fill-rule="evenodd"/>
        <path id="Caminho_8519" data-name="Caminho 8519" d="M143.933,20.648a5.3,5.3,0,1,0-5.3-5.3,5.306,5.306,0,0,0,5.3,5.3" transform="translate(-97.261 -7.046)" fill="#c2a6fc" fill-rule="evenodd"/>
        <path id="Caminho_8520" data-name="Caminho 8520" d="M142.847,9.424a4.851,4.851,0,1,0,4.846,4.851,4.861,4.861,0,0,0-4.846-4.851m0,10.605a5.754,5.754,0,1,1,5.755-5.755,5.769,5.769,0,0,1-5.755,5.755" transform="translate(-96.175 -5.978)" fill="#211a5c" fill-rule="evenodd"/>
        <path id="Caminho_8521" data-name="Caminho 8521" d="M47.811,22.256a23.5,23.5,0,0,0-11.5-3.554,12.176,12.176,0,0,0-5.843,1.385,10.461,10.461,0,0,0-4.112,4.055l-.012.023a5.092,5.092,0,0,1,1.316.493,9.075,9.075,0,0,1,3.469-3.351,10.754,10.754,0,0,1,5.182-1.22,22.159,22.159,0,0,1,10.809,3.366A47.136,47.136,0,0,1,62.678,38.89c3.981,6.27,6.431,13.166,6.431,19.2a14.77,14.77,0,0,1-1.735,7.471v0A9.154,9.154,0,0,1,63.8,69.086,10.751,10.751,0,0,1,58.62,70.3a16.334,16.334,0,0,1-3.762-.461,26.169,26.169,0,0,1-2.692.649,19.519,19.519,0,0,0,6.454,1.2A12.157,12.157,0,0,0,64.467,70.3a10.454,10.454,0,0,0,4.108-4.047v0A16.221,16.221,0,0,0,70.5,58.092c0-6.3-2.539-13.463-6.65-19.945a48.578,48.578,0,0,0-16.04-15.891" transform="translate(-18.483 -13.121)" fill="#9466f2" fill-rule="evenodd"/>
        <path id="Caminho_8522" data-name="Caminho 8522" d="M52.859,69.563c3.959,1.077,7.544.847,10.325-.661A9.958,9.958,0,0,0,67.1,65.048c0-.008.012-.015.012-.027a15.687,15.687,0,0,0,1.862-7.932c0-6.009-2.335-13.009-6.57-19.7A47.876,47.876,0,0,0,46.543,21.661s-.011-.011-.023-.016c-6.4-3.7-12.625-4.481-16.9-2.161a9.982,9.982,0,0,0-3.651,3.4c.154.054.309.111.462.177A9.388,9.388,0,0,1,29.852,19.9c4.12-2.234,10.2-1.446,16.438,2.154A47.4,47.4,0,0,1,62,37.644c4.2,6.616,6.509,13.525,6.509,19.444a15.308,15.308,0,0,1-1.8,7.693,9.619,9.619,0,0,1-3.751,3.7,12.992,12.992,0,0,1-9.151.823c-.308.092-.627.181-.947.261m4.7,1.574a20.015,20.015,0,0,1-6.6-1.224.465.465,0,0,1-.307-.461.456.456,0,0,1,.373-.412,25,25,0,0,0,2.639-.635.432.432,0,0,1,.23-.008,12.173,12.173,0,0,0,8.628-.716,8.626,8.626,0,0,0,3.4-3.351A14.35,14.35,0,0,0,67.6,57.089c0-5.755-2.258-12.487-6.366-18.96A46.441,46.441,0,0,0,45.828,22.842c-5.943-3.435-11.713-4.223-15.54-2.142a8.617,8.617,0,0,0-3.308,3.185.452.452,0,0,1-.6.166,4.443,4.443,0,0,0-1.2-.446.43.43,0,0,1-.307-.258.411.411,0,0,1,.016-.4,10.867,10.867,0,0,1,4.3-4.258C33.741,16.222,40.265,17,46.951,20.845c0,0,.016.012.027.016A48.934,48.934,0,0,1,63.172,36.9c4.324,6.84,6.713,14.006,6.713,20.187a16.648,16.648,0,0,1-1.966,8.359c0,.007-.012.015-.012.027A10.959,10.959,0,0,1,63.619,69.7a12.6,12.6,0,0,1-6.063,1.439" transform="translate(-17.42 -12.117)" fill="#211a5c" fill-rule="evenodd"/>
        <path id="Caminho_8523" data-name="Caminho 8523" d="M54.492,80.341a14.283,14.283,0,0,1,2.566,3.027,9.16,9.16,0,0,1,0,10.14v0a17.944,17.944,0,0,1-6.981,6.065c-5.536,2.978-12.771,4.462-20.011,4.462S15.6,102.555,10.043,99.577a18.131,18.131,0,0,1-6.978-6.065,9.226,9.226,0,0,1,0-10.144,14.249,14.249,0,0,1,2.577-3.027,25.754,25.754,0,0,0-.792,2.988c-.178.242-.343.485-.5.731v0a7.9,7.9,0,0,0,0,8.763A16.7,16.7,0,0,0,10.8,98.386c5.308,2.846,12.279,4.269,19.268,4.269s13.963-1.424,19.272-4.269a16.674,16.674,0,0,0,6.444-5.567,7.953,7.953,0,0,0,0-8.76v0c-.154-.246-.319-.489-.5-.731a25.838,25.838,0,0,0-.792-2.984" transform="translate(-1.085 -56.364)" fill="#9466f2" fill-rule="evenodd"/>
        <path id="Caminho_8524" data-name="Caminho 8524" d="M55.973,92.445h0ZM2.389,82.513c-.011.007-.011.019-.027.027a8.761,8.761,0,0,0,0,9.666,17.608,17.608,0,0,0,6.817,5.908c5.3,2.842,12.328,4.409,19.8,4.409s14.514-1.567,19.806-4.409a17.575,17.575,0,0,0,6.79-5.881.031.031,0,0,0,.015-.031,8.706,8.706,0,0,0,0-9.667,11.73,11.73,0,0,0-1.251-1.673c.1.4.189.807.278,1.212.169.223.323.45.461.676,0,.012.012.024.012.036a8.6,8.6,0,0,1,1.381,4.585,8.72,8.72,0,0,1-1.393,4.62,17.066,17.066,0,0,1-6.613,5.723.124.124,0,0,1-.034.016c-5.2,2.781-12.1,4.312-19.452,4.312S14.713,100.508,9.52,97.73c-.011-.008-.011-.012-.023-.016a17.1,17.1,0,0,1-6.613-5.723,8.376,8.376,0,0,1,0-9.236c.142-.231.3-.454.461-.681.077-.4.177-.812.281-1.216a12.08,12.08,0,0,0-1.239,1.654m26.592,20.914c-7.617,0-14.8-1.6-20.226-4.516A18.437,18.437,0,0,1,1.6,92.683a9.615,9.615,0,0,1-.012-10.594c0-.008.012-.019.012-.027a15.031,15.031,0,0,1,2.67-3.127.452.452,0,0,1,.546-.042.468.468,0,0,1,.181.523,23.991,23.991,0,0,0-.782,2.935.429.429,0,0,1-.077.181c-.176.231-.33.466-.485.7a7.486,7.486,0,0,0,0,8.282A16.169,16.169,0,0,0,9.894,96.9l.039.015c5.065,2.72,11.828,4.216,19.049,4.216s13.99-1.5,19.056-4.216a.135.135,0,0,1,.038-.019,16.127,16.127,0,0,0,6.239-5.385,7.479,7.479,0,0,0,0-8.282c-.011-.011-.026-.022-.026-.034-.138-.223-.292-.447-.458-.669a.44.44,0,0,1-.077-.177,24.7,24.7,0,0,0-.778-2.935.457.457,0,0,1,.177-.52.451.451,0,0,1,.55.042,14.7,14.7,0,0,1,2.654,3.123,9.883,9.883,0,0,1,1.608,5.309,10.018,10.018,0,0,1-1.581,5.282c0,.012-.016.019-.016.03a18.514,18.514,0,0,1-7.159,6.228c-5.424,2.912-12.609,4.516-20.229,4.516" transform="translate(0 -55.297)" fill="#211a5c" fill-rule="evenodd"/>
        <path id="Caminho_8525" data-name="Caminho 8525" d="M101.158,148.471a5.878,5.878,0,1,0-5.881-5.877,5.873,5.873,0,0,0,5.881,5.877" transform="translate(-66.842 -95.914)" fill="#c2a6fc" fill-rule="evenodd"/>
        <path id="Caminho_8526" data-name="Caminho 8526" d="M100.111,136.1a5.426,5.426,0,1,0,5.424,5.428,5.436,5.436,0,0,0-5.424-5.428m0,11.756a6.33,6.33,0,1,1,6.332-6.328,6.33,6.33,0,0,1-6.332,6.328" transform="translate(-65.795 -94.847)" fill="#211a5c" fill-rule="evenodd"/>
      </g>
    </g>
    <rect id="Ret창ngulo_6931" data-name="Ret창ngulo 6931" width="75" height="74" transform="translate(348 2522)" fill="none"/>
  </g>
</svg>
