<svg xmlns="http://www.w3.org/2000/svg" width="25.077" height="25.077" viewBox="0 0 25.077 25.077">
  <path id="Icon_metro-linkedin" data-name="Icon metro-linkedin" d="M23.435,1.928H6.783A4.225,4.225,0,0,0,2.571,6.14V22.793A4.225,4.225,0,0,0,6.783,27H23.435a4.225,4.225,0,0,0,4.212-4.212V6.14a4.225,4.225,0,0,0-4.212-4.212ZM11.975,22.3H8.84V11.332h3.135ZM10.407,9.765A1.567,1.567,0,1,1,11.975,8.2,1.567,1.567,0,0,1,10.407,9.765ZM22.946,22.3H19.811V16.034a1.567,1.567,0,1,0-3.135,0V22.3H13.542V11.332h3.135v1.946c.646-.888,1.635-1.946,2.743-1.946a3.738,3.738,0,0,1,3.526,3.918Z" transform="translate(-2.571 -1.928)" fill="#3aaa35"/>
</svg>
