<svg xmlns="http://www.w3.org/2000/svg" width="29.261" height="21.95" viewBox="0 0 29.261 21.95">
  <path id="Icon_ionic-logo-youtube" data-name="Icon ionic-logo-youtube" d="M29.07,9.347a4.443,4.443,0,0,0-4.23-4.641c-3.167-.149-6.4-.206-9.694-.206H14.118c-3.292,0-6.527.057-9.694.206A4.453,4.453,0,0,0,.2,9.358c-.143,2.035-.206,4.07-.2,6.1s.057,4.07.194,6.11a4.458,4.458,0,0,0,4.224,4.658c3.327.154,6.739.223,10.208.217q5.213.017,10.208-.217a4.459,4.459,0,0,0,4.23-4.658c.137-2.041.2-4.075.194-6.116Q29.276,12.4,29.07,9.347ZM11.831,21.07V9.839l8.288,5.613Z" transform="translate(0 -4.5)" fill="#3aaa35"/>
</svg>
